<?xml version="1.0" standalone="no"?>
<!DOCTYPE svg PUBLIC "-//W3C//DTD SVG 1.1//EN" "http://www.w3.org/Graphics/SVG/1.1/DTD/svg11.dtd">
<svg xmlns="http://www.w3.org/2000/svg">
<metadata>Copyright (C) 2018 by original authors @ fontello.com</metadata>
<defs>
<font id="hkstalls" horiz-adv-x="1000" >
<font-face font-family="hkstalls" font-weight="400" font-stretch="normal" units-per-em="1000" ascent="850" descent="-150" />
<missing-glyph horiz-adv-x="1000" />
<glyph glyph-name="add" unicode="&#xe800;" d="M875 381h-344v344c0 17-14 31-31 31s-31-14-31-31v-344h-344c-17 0-31-14-31-31s14-31 31-31h344v-344c0-17 14-31 31-31s31 14 31 31v344h344c17 0 31 14 31 31s-14 31-31 31z" horiz-adv-x="1000" />

<glyph glyph-name="address-book" unicode="&#xe801;" d="M257 167c0 8-3 16-9 22-5 6-13 9-21 9h-113c-16 0-29-14-29-31 0-17 13-30 29-30h113c17 0 30 14 30 30z m-143 335h113c17 0 30 14 30 31s-14 30-30 30h-113c-16 0-29-13-29-30s13-31 29-31z m0-183h113c17 0 30 14 30 31 0 8-3 15-9 21-5 6-13 9-21 9h-113c-16 0-29-13-29-30 0-17 13-31 29-31z m212-176l-6-15h65l3 6c25 47 83 81 142 84h12c59-2 118-37 143-84l3-6h65l-6 15c-10 25-28 49-52 70-16 15-35 28-55 38 19 14 36 33 49 53 16 28 25 59 25 91 0 99-80 178-178 178-98 0-178-80-178-178 0-32 9-64 26-91 12-20 29-39 49-53-20-10-39-23-55-38-24-20-42-45-52-70z m92 253c0 65 53 118 118 118s118-53 118-118-53-118-118-118c-65 0-118 53-118 118z m411 390h-586c-54 0-97-44-97-97v-75h59v64c0 33 17 49 49 49h565c32 0 48-17 48-49v-657c0-33-16-49-48-49h-565c-33 0-49 17-49 49v64h-59v-73c0-55 44-98 97-98h586c54 0 97 44 97 98v677c0 53-43 97-97 97z" horiz-adv-x="1000" />

<glyph glyph-name="alarm-e" unicode="&#xe802;" d="M830 188v247c0 50-12 98-33 141l142 142c14 13 14 34 1 48s-34 14-48 1c0 0-1-1-1-1l-131-131c-42 53-100 94-168 113-17 35-53 57-92 57-39 0-74-22-91-57-139-39-238-167-238-313v-248c-81-38-125-88-125-144 0-15 6-35 35-53l0 0c8-4 16-7 24-10l-38-38c-14-13-14-34-1-48s34-14 48-1c0 0 1 1 1 1l67 67c65-12 150-19 240-21 6-38 39-67 78-67 40 0 73 29 79 68 151 5 289 22 341 52 29 18 35 38 35 53 0 55-45 105-125 142z m-671-153c-22 5-37 10-44 15 5 28 44 59 103 82 13 5 21 18 21 32v271c0 120 85 225 203 250 13 3 23 13 26 25 3 15 17 26 33 26 15 0 29-10 33-26 3-12 13-22 26-25 62-13 116-49 152-99l-553-551z m341-27c-107 0-194 5-258 13l503 503c11-28 17-58 17-89l0 0v-269c0-14 8-27 21-32 60-23 97-53 103-81-29-19-163-44-386-45z" horiz-adv-x="1000" />

<glyph glyph-name="alarm" unicode="&#xe803;" d="M830 188v247c0 145-99 274-238 312-17 35-53 58-92 57-39 0-74-22-91-57-139-38-238-167-238-312v-249c-81-37-125-88-125-144 0-14 6-35 35-52 52-30 190-47 341-51 6-38 39-67 79-67 39 0 72 29 78 68 151 5 290 22 341 52 29 18 35 38 35 53 0 56-45 106-125 143z m-330-180c-222 0-356 23-385 42 5 28 44 59 103 82 13 5 21 18 21 32v271c0 120 85 225 203 250 13 3 23 13 26 25 4 18 22 30 41 25 12-3 22-12 25-25 3-12 13-22 26-25 117-25 202-130 202-250v-270c0-14 9-26 22-31 59-24 97-54 103-82-30-18-164-44-387-44z" horiz-adv-x="1000" />

<glyph glyph-name="arrow-down" unicode="&#xe804;" d="M897 528c-12 13-31 13-44 0l-353-353-353 353c-12 13-31 13-44 0s-12-31 0-44l375-375c6-6 14-9 22-9s16 3 22 9l375 375c13 13 13 32 0 44z" horiz-adv-x="1000" />

<glyph glyph-name="arrow-left" unicode="&#xe805;" d="M325 350l353 353c13 13 13 31 0 44s-31 13-44 0l-375-375c-12-12-12-31 0-44l375-375c6-6 14-10 22-10s16 3 22 10c13 12 13 31 0 44l-353 353z" horiz-adv-x="1000" />

<glyph glyph-name="arrow-right" unicode="&#xe806;" d="M741 372l-375 375c-13 13-31 13-44 0s-13-31 0-44l353-353-353-353c-12-13-12-31 0-44 6-6 14-10 22-10s16 3 22 10l375 375c12 13 12 32 0 44z" horiz-adv-x="1000" />

<glyph glyph-name="arrow-up" unicode="&#xe807;" d="M897 216l-375 375c-12 12-31 12-44 0l-375-375c-12-13-12-31 0-44s31-13 44 0l353 353 353-353c6-6 14-9 22-9s16 3 22 9c13 13 13 31 0 44z" horiz-adv-x="1000" />

<glyph glyph-name="cart-add" unicode="&#xe808;" d="M785 43c-38 0-68-30-68-68 0 0 0 0 0 0 0-38 30-68 68-68 37 0 67 30 67 68 0 0 0 0 0 0 0 38-30 68-67 68z m-447 0c-38 0-68-30-68-68 0 0 0 0 0 0 0-38 30-68 68-68s67 30 67 68c0 38-30 68-67 68z m563 636c-38 39-89 61-144 61-110 0-199-89-199-199s89-199 199-199 198 89 198 199c2 51-17 101-54 138z m-145-277c-78 0-142 62-142 139 0 78 63 139 142 139 78 0 142-62 142-139 0-78-62-139-142-139z m-396-166c-4-4-7-11-5-21 0-16 15-26 30-26l481 40c16 0 27 16 27 30 0 16-15 27-30 27l-481-40c-9 0-17-4-22-10z m-38 422h185c14 0 30 11 30 30 0 14-11 30-30 30h-185c-14 0-30-11-30-30s15-30 30-30z m503-87h-42v42c0 14-11 30-30 30-18 0-30-12-30-30v-42h-42c-14 0-30-11-30-30 0-15 11-30 30-30h42v-42c0-15 11-30 30-30 19 0 30 11 30 30v42h42c15 0 30 11 30 30v1c-3 14-14 29-30 29z m41-441h-513c-26 0-52 25-57 46l-91 535c-10 53-60 94-114 94h-22c-15 0-30-11-30-30 0-14 11-30 30-30h22c26 0 52-20 57-46l91-534c10-53 60-95 114-95h513c14 0 30 11 30 30 0 15-15 30-30 30z" horiz-adv-x="1000" />

<glyph glyph-name="cart" unicode="&#xe809;" d="M929 647l0 0c-16 21-42 33-70 33h-559c-15 0-30-15-30-30s15-30 30-30h560c10 0 19-3 23-9 5-6 6-14 3-25l-69-275c-6-30-39-53-67-56l-387-28c-8 0-16-4-21-10-6-7-8-15-6-24 0-7 4-15 10-20 5-5 12-7 18-7 2 0 4 0 6 1l387 28c54 3 107 47 120 100l69 275c6 28 0 56-17 77z m-144-604c-38 0-68-30-68-68 0 0 0 0 0 0 0-38 30-68 68-68 37 0 67 30 67 68 0 0 0 0 0 0 0 38-30 68-67 68z m-447 0c-38 0-68-30-68-68 0 0 0 0 0 0 0-38 30-68 68-68s67 30 67 68c0 38-30 68-67 68z m528 87h-513c-26 0-52 25-57 46l-91 535c-10 53-60 94-114 94h-22c-15 0-30-11-30-30 0-14 11-30 30-30h22c26 0 52-20 57-46l91-534c10-53 60-95 114-95h513c14 0 30 11 30 30 0 15-15 30-30 30z" horiz-adv-x="1000" />

<glyph glyph-name="chart" unicode="&#xe80a;" d="M865 422h-164v273c0 51-41 91-93 91h-215c-52 0-93-40-93-91v-145h-164c-52 0-93-42-93-93v-450c0-52 42-93 93-93h729c51 0 93 42 93 93v322c0 51-42 93-93 93z m-565-450h-164c-20 0-36 16-36 36v450c0 19 16 35 36 35h164v-521z m343 443l0 0 0-443h-285v723c0 19 15 33 35 33h215c20 0 35-14 35-33v-280z m257-408c0-20-16-36-36-36h-164v393h164c20 0 36-16 36-35h0v-322z" horiz-adv-x="1000" />

<glyph glyph-name="check" unicode="&#xe80b;" d="M867 559c-12 12-32 11-44-1l-417-444-227 225c-13 12-32 12-44-1-12-12-12-32 0-44l250-247c0 0 0 0 1 0 0 0 0 0 0 0 2-2 4-3 6-4 1-1 2-2 4-2 3-2 7-2 11-2 4 0 8 1 12 2 2 1 3 2 4 3 2 1 5 2 7 4 0 0 0 1 0 1 0 0 0 0 0 0l439 467c12 11 11 31-2 43z" horiz-adv-x="1000" />

<glyph glyph-name="circle" unicode="&#xe80c;" d="M500 815c-256 0-464-209-464-466 0-256 208-465 464-465s465 210 465 467c0 256-209 464-465 464z m-1-872c-225 0-408 184-408 408s184 408 409 408c224 0 406-183 406-408 0-224-183-408-407-408z" horiz-adv-x="1000" />

<glyph glyph-name="clock" unicode="&#xe80d;" d="M811 661c-83 83-194 129-311 129-117 0-228-46-311-129-83-83-128-194-128-311 0-117 45-228 128-311 83-83 194-129 311-129 117 0 228 46 311 129 83 83 129 194 129 311 0 117-46 228-129 311z m-39-583c-72-73-169-114-271-114-103 0-199 41-272 114-72 72-112 169-112 272 0 102 40 199 112 272 73 72 169 112 271 112 103 0 199-40 272-112 72-73 112-170 112-272 0-103-40-199-112-272z m-245-6h-54c-3 0-5-2-5-5v-54c0-3 2-5 5-5h54c3 0 5 2 5 5v54c0 2-2 5-5 5z m-54 559h54c3 0 5 2 5 5v54c0 3-2 5-5 5h-54c-3 0-5-2-5-5v-54c0-3 3-5 5-5z m-263-249h-54c-3 0-5-2-5-5v-54c0-3 2-5 5-5h54c3 0 5 2 5 5v54c0 3-2 5-5 5z m633 0h-54c-3 0-5-2-5-5v-54c0-3 2-5 5-5h54c3 0 5 2 5 5v54c0 3-2 5-5 5z m-311-35l0 0 0 256c0 3-2 5-5 5h-54c-3 0-5-2-5-5v-280c0-2 1-3 2-4l156-156c1-1 2-2 3-2s3 1 4 2l38 38c2 2 2 5 0 7l-139 139z" horiz-adv-x="1000" />

<glyph glyph-name="close" unicode="&#xe80e;" d="M544 349l259 258c12 12 13 32 0 44-12 12-32 12-44 0l-259-258-256 258c-12 12-32 12-44 0-12-12-13-32 0-44l257-258-259-257c-13-12-13-32 0-44 6-6 14-9 22-9 8 0 16 3 22 9l259 257 259-260c6-6 14-9 22-9 8 0 16 3 22 9 12 12 12 32 0 44l-260 260z" horiz-adv-x="1000" />

<glyph glyph-name="copy-o" unicode="&#xe80f;" d="M859 669v129h-815v-783h114v-114h799v768h-98z m-124-411h-151v-150c0-15-12-28-27-28s-28 13-28 28v150h-150c-15 0-28 13-28 28s13 27 28 27h150v151c0 15 13 27 28 27s27-12 27-27v-151h151c15 0 27-12 27-27s-12-28-27-28z m70 411h-648v-599h-58v674h706v-75z" horiz-adv-x="1000" />

<glyph glyph-name="copy" unicode="&#xe810;" d="M859 669v129h-815v-783h114v-114h799v768h-98l0 0z m-54 75v-75h-648v-599h-58v674h706l0 0z m-593-788v658h690v-657l-690-1 0 0z m523 357h-151v151c0 15-12 27-27 27s-28-12-28-27v-151h-150c-15 0-28-12-28-27s13-28 28-28h150v-150c0-15 13-28 28-28s27 13 27 28v150h151c15 0 27 13 27 28s-12 27-27 27l0 0z" horiz-adv-x="1000" />

<glyph glyph-name="cs" unicode="&#xe811;" d="M945 295c0 72-45 133-111 155v11c0 184-150 334-334 334s-333-150-333-334v-11c-67-22-111-83-111-155 0-95 72-167 166-167h56v333h-56c0 156 122 278 278 278s278-122 278-278h-55v-333h33c-33-84-111-145-200-162v56h-167v-111h167c122 22 222 106 261 222 72 17 128 84 128 162l0 0z m-723-111c-61 0-111 50-111 111s50 111 111 111v-222z m556 0v222c61 0 111-50 111-111s-50-111-111-111l0 0z" horiz-adv-x="1000" />

<glyph glyph-name="date" unicode="&#xe812;" d="M451 400h99v-100h-99v100z m204-143h100v-100h-100v100z m0 143h100v-100h-100v100z m-204-143h99v-100h-99v100z m-205-143h100v-100h-100v100z m205 0h99v-100h-99v100z m417 613h-73v53c0 16-13 29-29 29-16 0-29-13-29-29v-53h-473v53c0 16-13 29-29 29-16 0-29-13-29-29v-53h-74c-50 0-90-40-90-90v-655c0-50 40-91 90-91h737c50 0 90 41 90 91v655c0 50-41 90-91 90z m33-263v-482c0-18-15-32-32-32h-737c-17 0-32 14-32 32v482h801z m-667 123c16 0 29 13 29 29v53h474v-53c0-16 13-29 29-29s29 13 29 29v53h73c17 0 32-15 32-32v-114h-800v114c0 17 14 32 32 32h73v-53c0-16 13-29 29-29z m12-330h100v-100h-100v100z m0 143h100v-100h-100v100z" horiz-adv-x="1000" />

<glyph glyph-name="delete-o" unicode="&#xe813;" d="M920 620c-4 17-12 26-26 26h-170v38c0 52-42 94-94 94h-269c-51 0-93-42-93-94v-38h-162c-12 0-26-10-26-26 0-13 10-26 26-26h53v-578c0-52 42-94 94-94h504c51 0 93 42 93 94v578h45c12 0 26 9 25 26z m-597 64c0 22 19 42 41 42h270c22 0 41-20 41-42v-38h-352v38z m70-237v-314c0-16-13-26-26-26-13 0-26 10-26 26v314c0 16 10 26 26 26 13 0 22-8 26-26l0 0z m146 0v-314c0-16-13-26-26-26-13 0-26 10-26 26v314c0 16 10 26 26 26 14 0 22-8 26-26l0 0z m147 0v-314c0-16-13-26-26-26-13 0-26 10-26 26v314c0 16 10 26 26 26 13 0 22-8 26-26l0 0z" horiz-adv-x="1000" />

<glyph glyph-name="delete" unicode="&#xe814;" d="M920 620c-4 17-12 26-26 26h-170v38c0 52-42 94-94 94h-269c-51 0-93-42-93-94v-38h-162c-12 0-26-10-26-26 0-13 10-26 26-26h53v-578c0-52 42-94 94-94h504c51 0 93 42 93 94v578h45c12 0 26 9 26 26 0 0-1 0-1 0z m-597 26v38c0 22 19 42 41 42h270c22 0 41-20 41-42v-38h-352z m439-672h-503c-23 0-48 17-48 39l3 581h584v-569c0-25-13-51-36-51l0 0z m-395 499c-16 0-26-10-26-26v-314c0-16 13-26 26-26 13 0 26 10 26 26v314c-4 18-13 26-26 26z m146 0c-16 0-26-10-26-26v-314c0-16 13-26 26-26 13 0 26 10 26 26v314c-4 18-12 26-26 26z m147 0c-16 0-26-10-26-26v-314c0-16 13-26 26-26 13 0 26 10 26 26v314c-4 18-13 26-26 26z" horiz-adv-x="1000" />

<glyph glyph-name="edit" unicode="&#xe815;" d="M837 587c-17 0-29-12-29-29v-541c0-20-15-35-34-35h-562c-19 0-34 16-34 35v625c0 19 15 34 34 34h479c16 0 28 11 28 28s-11 29-28 29h-479c-50 0-91-41-91-91v-625c0-51 40-92 91-92h562c50 0 91 41 91 92v542c0 16-11 28-28 28z m-125-271h-438c-16 0-28-11-28-28s11-29 28-29h438c16 0 28 12 28 29s-11 28-28 28z m207 471c-5 5-12 8-20 8-7 0-14-3-20-8l-310-311c-12-11-12-28 0-40 6-6 14-8 20-8s14 2 20 8l310 309c6 5 9 13 9 21s-3 15-9 21z m-207-636h-438c-16 0-28-11-28-28 0-17 11-29 28-29h438c16 0 28 12 28 29 0 17-11 28-28 28z m-250 332h-188c-16 0-28-12-28-29 0-17 11-28 28-28h188c16 0 28 11 28 28 0 17-11 29-28 29z" horiz-adv-x="1000" />

<glyph glyph-name="excel" unicode="&#xe816;" d="M923 528l-266 266c-1 2-4 3-6 3h-457c-5 0-9-4-9-9v-388c0-5 4-9 9-9h39c5 0 9 4 9 9v340h389l11-11v-207c0-5 4-9 9-9h207l11-11v-542h-318c-5 0-9-4-9-9v-39c0-5 4-9 9-9h366c5 0 9 4 9 9v610c0 2-1 4-3 6z m-122 42h-102v102l102-102z m-498-429l94 126c2 3 3 6 1 9-1 3-4 5-8 5h-40c-2 0-5-1-7-3l-56-74c-5-7-10-14-15-21-4 7-9 14-15 23l-52 72c-1 2-4 3-7 3h-44c-3 0-6-2-8-4-1-3-1-7 1-9l91-129-104-141c-2-2-3-6-1-9s4-5 8-5h44c3 0 6 2 7 4l70 98c2 2 4 5 7 9 1-2 3-5 5-7l70-101c2-2 5-3 7-3h46c3 0 6 2 8 5s1 6-1 9c0 0-101 143-101 143z m186 220h-438c-5 0-9-4-9-9v-438c0-5 4-9 9-9h438c5 0 9 4 9 9v438c-1 5-5 9-9 9z m-390-399v342h342v-342c0 0-342 0-342 0z m662 522h-410c-5 0-9-4-9-9v-39c0-5 4-9 9-9h410c5 0 9 4 9 9v39c-1 5-5 9-9 9z m9-150c0 5-4 9-9 9h-210c-5 0-9-4-9-9v-39c0-5 4-9 9-9h210c5 0 9 4 9 9v39z m-9-132h-210c-5 0-9-4-9-9v-39c0-5 4-9 9-9h210c5 0 9 4 9 9v39c0 5-4 9-9 9z" horiz-adv-x="1000" />

<glyph glyph-name="exclamation" unicode="&#xe817;" d="M441 142c0 36 24 61 59 61 36 0 59-25 60-61 0-36-24-62-60-62-36 1-60 27-59 62z m22 111l-14 367h102l-14-367c0 0-74 0-74 0z" horiz-adv-x="1000" />

<glyph glyph-name="filter" unicode="&#xe818;" d="M594-88c-17 0-31 14-31 31v470c0 8 3 15 8 21l204 229h-550l205-229c5-6 8-13 8-21v-282l49-40c14-11 16-31 5-44-11-14-31-16-44-5l-61 50c-8 6-12 15-12 24v285l-243 272c-8 9-10 23-5 34 5 11 16 18 29 18h690c12 0 23-7 28-18s3-25-5-34l-244-272 0-457c0-18-13-32-31-32z" horiz-adv-x="1000" />

<glyph glyph-name="gift" unicode="&#xe819;" d="M889 604h-105c14 29 21 60 19 92-2 37-17 68-39 86-18 13-40 20-67 20-50 0-107-26-152-71-20-19-34-40-45-60-11 22-26 42-44 60-45 44-102 71-152 71-26 0-49-7-67-20-22-18-36-49-39-86-2-32 5-63 19-92h-105c-52 0-94-42-94-94v-43c0-49 38-89 87-93v-317c0-88 71-159 158-159h475c88 0 159 72 159 159v317c48 4 86 44 86 93v43c0 52-42 94-94 94l0 0z m1-172h-360v114h359c20 0 36-16 36-35v-43c0-20-16-36-35-36z m-627-476c-55 0-100 46-100 101v316h309v-417h-209v0z m-187 511v43c0 20 16 36 36 36h360v-115h-361c-19 1-35 17-35 36z m460 137c9 32 26 62 50 86 34 34 76 54 112 54 13 0 23-3 30-8 9-7 16-25 17-44 2-30-9-62-30-87l-179-1 0 0z m-6-231h309v-316c0-56-45-101-101-101h-208v417z m-257 363c7 5 18 8 31 8 35 0 77-20 111-54 24-24 41-53 50-86h-178c-21 26-32 57-31 88 2 19 8 37 17 44z" horiz-adv-x="1000" />

<glyph glyph-name="heart-o" unicode="&#xe81a;" d="M500-79c-9 0-18 4-24 10l-348 337c-5 4-128 116-128 250 0 163 100 261 267 261 98 0 189-77 233-121 44 44 136 121 234 121 167 0 266-98 266-261 0-134-123-246-128-251l-347-336c-7-6-16-10-25-10l0 0z" horiz-adv-x="1000" />

<glyph glyph-name="heart" unicode="&#xe81b;" d="M718 806c-86 0-165-43-218-113-52 70-131 113-217 113-154 0-280-137-280-306 0-100 45-171 81-228 105-164 369-370 380-378 11-9 24-13 36-13 13 0 25 4 36 13 11 8 275 214 380 378 36 57 81 127 81 228 0 169-125 306-279 306l0 0z m147-494c-100-157-365-362-365-362s-265 205-365 362c-37 58-70 113-70 189 0 131 98 237 218 237 88 0 165-58 198-141v0h0c3-8 10-15 19-15 9 0 16 7 18 15h1c34 83 110 141 198 141 120 0 218-106 218-237 0-77-33-132-70-189l0 0z" horiz-adv-x="1000" />

<glyph glyph-name="image-e" unicode="&#xe81c;" d="M637 368c66 0 120 53 120 119s-54 120-120 120-119-54-119-120 53-119 119-119z m-8-283c0 101 81 182 181 183l-45 44c-11 12-30 12-42 0l-116-115-222 222c-11 11-30 11-42 0l-231-231v495h776v-432c23-11 44-26 60-45v507c0 17-13 30-30 30h-836c-16 0-30-13-30-30v-726c0-17 14-30 30-30h599c-32 33-52 78-52 128z m182 151c-83 0-150-68-150-151s67-151 150-151 151 68 151 151-68 151-151 151z m24-59l-7-133h-33l-7 133h47z m-24-201c-16 0-26 11-26 27 0 15 11 26 26 26s26-11 26-26c0-16-10-27-26-27z" horiz-adv-x="1000" />

<glyph glyph-name="image-o" unicode="&#xe81d;" d="M918 743h-836c-16 0-30-13-30-30v-726c0-17 14-30 30-30h836c17 0 30 13 30 30v726c0 17-13 30-30 30l0 0z m-30-60v-493l-122 122c-12 12-31 12-43 0l-115-115-223 222c-11 11-30 11-42 0l-231-231v495h776z m-251-315c66 0 120 53 120 119s-54 120-120 120-119-54-119-120 53-119 119-119z" horiz-adv-x="1000" />

<glyph glyph-name="image" unicode="&#xe81e;" d="M918 743h-836c-16 0-30-13-30-30v-726c0-17 14-30 30-30h836c17 0 30 13 30 30v726c0 17-13 30-30 30l0 0z m-30-60v-493l-122 122c-12 12-31 12-43 0l-115-115-223 222c-11 11-30 11-42 0l-231-231v495h776z m-776-666v87l252 251 223-222 37-37c6-6 13-9 21-9 7 0 15 3 21 9 11 11 11 30 0 42l-16 16 94 95 144-144v-87h-776v-1z m525 351c66 0 120 53 120 119s-54 120-120 120-119-54-119-120 53-119 119-119z m0 178c33 0 60-26 60-59 0-33-27-60-60-60s-59 27-59 60c0 33 26 59 59 59z" horiz-adv-x="1000" />

<glyph glyph-name="income" unicode="&#xe81f;" d="M371 481c-14 0-25-11-25-25v-307c0-14 11-25 25-25 14 0 25 11 25 25v307c0 14-11 25-25 25z m-125-184c-14 0-25-11-25-25v-123c0-14 11-25 25-25s25 11 25 25v123c0 14-11 25-25 25z m254 105c-14 0-25-11-25-25v-228c0-14 11-25 25-25 14 0 25 11 25 25v228c0 14-11 25-25 25z m502-73c0 58-44 106-100 113v163c0 36-32 65-73 65h-54c-3 3-7 5-11 6l-526 151c-33 9-67-8-79-39l-45-118h-31c-40 0-73-29-73-65v-592c0-37 32-66 73-66h747c40 0 72 29 72 66v203c57 7 100 54 100 113z m-796 441c3 7 11 11 19 9l381-109h-438l38 100z m624-773h-747c-13 0-23 7-23 16v592c0 7 10 15 23 15h746c13 0 23-7 23-15v-162h-97c-63 0-114-51-114-114s51-114 114-114h97v-202c0-7-10-16-22-16l0 0z m58 268h-133c-35 0-64 28-64 64s29 64 64 64h111c3-2 7-3 11-3s7 1 11 3h0c36 0 64-29 64-64 0-36-28-64-64-64z m-125 94c-18 0-33-15-33-33 0-19 15-34 33-34 19 0 34 15 34 34 0 18-15 33-34 33z" horiz-adv-x="1006" />

<glyph glyph-name="key-o" unicode="&#xe820;" d="M664 815h-33l2-1c-163-16-260-150-260-281 0-33 7-71 18-99l-115-58c-10-5-16-15-16-26v-97h-69-5c-27-2-38-14-39-43v-98h-69c-2 0-4 0-5 1-4 0-17 2-28-7-11-10-10-23-10-29v-136c0-31 26-56 57-56h109c13 0 26 5 37 14l365 320c19-3 43-7 61-7 166 0 301 135 301 301s-135 302-301 302z m-118-526l-318-279-18 21 318 279c3 3 6 4 9 4 4 0 8-2 11-5 5-6 4-15-2-20l0 0z m165 159c-62 0-113 51-113 113s51 114 113 114 114-51 114-114-51-113-114-113z" horiz-adv-x="1001" />

<glyph glyph-name="key" unicode="&#xe821;" d="M664 815h-33l2-1c-163-16-260-150-260-281 0-33 7-71 18-99l-115-58c-10-5-16-15-16-26v-97h-69-5c-27-2-38-14-39-43v-98h-69c-2 0-4 0-5 1-4 0-17 2-28-7-11-10-10-23-10-29v-136c0-31 26-56 57-56h109c13 0 26 5 37 14l365 320c19-3 43-7 61-7 166 0 301 135 301 301s-135 302-301 302z m-89-542l-375-330h-107v111h84c16 0 29 13 29 29v112h83c16 0 29 13 29 29v108l125 63c7 4 13 11 15 19 2 8 0 17-5 24-9 13-22 51-22 95 0 110 87 224 233 224 134 0 243-109 243-243 0-133-107-241-239-244h-4c-13 0-36 3-63 9-9 2-19 0-26-6l0 0z m136 175c63 0 114 51 114 113s-51 114-114 114-113-51-113-114 51-113 113-113z m0 168c31 0 56-25 56-55s-25-56-56-56c-30 0-55 25-55 56s25 55 55 55l0 0z m-174-302c-3 0-6-1-9-4l-318-279 18-21 318 279c6 5 7 14 2 20-3 3-7 5-11 5l0 0z" horiz-adv-x="1001" />

<glyph glyph-name="letter" unicode="&#xe822;" d="M807 716h-614c-83 0-150-68-150-151v-430c0-83 67-151 150-151h614c83 0 150 69 150 151v430c1 83-67 151-150 151l0 0z m-285-341c-13-11-31-11-44 0l-326 275c12 6 27 10 42 10h613c15 0 30-4 42-10l-327-275z m-423 190c0 16 4 32 12 46l332-279c16-14 36-21 58-21 21 0 41 7 57 21l332 279c8-14 12-30 12-46v-430c0-52-42-94-94-95h-615c-52 0-94 43-95 95l1 430 0 0z" horiz-adv-x="1000" />

<glyph glyph-name="like" unicode="&#xe823;" d="M654 735c-15 42-56 70-106 70-59 0-107-46-110-105l-1-9v-17c0-84-68-152-152-152h-181c-39 0-71-32-71-71v-485c0-40 31-71 70-71h688c37 0 71 28 79 64l96 448c6 30 0 59-18 81-18 22-46 35-77 35h-222l4 13c29 83 6 179 5 183 0 4-3 14-4 16l0 0z m-419-779h-142l1 505h141v-505z m636 505c13 0 23-4 29-12s8-18 6-30l-96-448c-1-8-11-16-19-16h-495v506h3v0l9 1c108 12 190 103 190 212v20c1 28 25 50 52 48 25-1 45-19 51-46 2-14 24-133-33-187-6-5-10-13-10-21 0-8 3-16 8-22 6-6 14-9 23-9h17l265 4z" horiz-adv-x="1000" />

<glyph glyph-name="line" unicode="&#xe824;" d="M464 789h73v-878h-73l0 878z" horiz-adv-x="1000" />

<glyph glyph-name="link" unicode="&#xe825;" d="M537 261c-3 1-7 0-9-2l-34-34c-1-1-3-3-4-4-3-2-4-6-3-9 9-49-7-100-42-135l-66-66c-28-29-67-45-107-45s-79 15-108 45c-60 59-60 156-1 215l66 66c35 35 85 51 134 42 4 0 7 1 10 4 1 1 2 2 3 4l34 34c3 2 4 6 3 9-1 4-4 6-7 7-79 27-165 6-224-53l-66-65c-41-42-64-97-64-155s23-114 65-155c42-43 99-64 155-64 56 0 112 22 154 65l66 65c59 59 79 146 52 225-1 3-4 6-7 6l0 0z m347 473c-41 41-96 64-155 64-58 0-113-23-154-65l-66-65c-59-60-79-146-52-225 1-3 4-6 7-6 4-1 7 0 10 2l34 34c1 1 2 3 4 4 2 2 4 6 3 9-9 49 7 100 42 135l65 66c60 59 156 59 216 0 59-59 59-156 0-215l-65-66c-35-35-86-51-135-42-3 0-7-1-9-4-1-1-3-2-4-4l-34-34c-2-2-3-6-2-9 1-4 3-6 6-7 23-8 47-12 71-12 57 0 112 23 154 65l65 65c41 42 64 97 64 155s-23 114-65 155z m-488-491c6-6 14-9 23-9 9 0 17 3 24 10l163 164c13 13 13 34 0 47-13 13-34 13-47 0 0 0 0 0 0 0l-164-165c-12-13-12-34 1-47z" horiz-adv-x="1000" />

<glyph glyph-name="list-01" unicode="&#xe826;" d="M589 677h339c18 0 33 15 33 33 0 8-4 17-10 23-6 6-14 9-23 9h-339c-18 0-33-14-33-32 0-9 4-17 10-23 6-6 14-10 23-10z m-201-362h-270c-42 0-77-34-77-77v-270c0-43 34-78 77-78h270c42 0 77 35 77 78v270c0 43-34 77-77 77l0 0z m12-77v-270c0-7-5-13-12-13h-270c-7 0-12 6-12 13v270c0 7 5 12 12 12h270c7 0 12-5 12-12l0 0z m189 215h339c18 0 33 14 33 32 0 18-15 33-33 33h-339c-18 0-33-15-33-33 0-18 15-32 33-32z m-201 357h-270c-42 0-77-35-77-78v-269c0-43 34-78 77-78h270c43 0 77 35 77 78v269c0 43-34 78-77 78z m12-78v-269c0-7-5-13-12-13h-270c-7 0-12 6-12 13v269c0 7 5 13 12 13h270c7 0 12-6 12-13z m528-484h-339c-18 0-33-15-33-33s15-32 33-32h339c18 0 33 14 33 32s-15 33-33 33l0 0z m0-225h-339c-18 0-33-14-33-33s15-32 33-32h339c18 0 33 14 33 32s-15 33-33 33z" horiz-adv-x="1001" />

<glyph glyph-name="list-02" unicode="&#xe827;" d="M372 837c-11 4-24-1-30-11l-217-325c-8-13-5-29 7-38s29-5 38 7c0 0 0 1 0 1l168 251v-833c-1-15 11-28 26-28 15 0 28 12 28 27 0 0 0 0 0 1v922c0 12-8 23-20 26z m496-600c-13 9-30 5-38-7 0 0 0 0 0 0l-167-252v833c-1 15-13 27-28 27-14-1-26-12-26-27v-923c0-12 8-22 19-26 3-1 5-1 8-1 9 0 18 5 23 12l217 326c8 13 4 30-8 38 0 0 0 0 0 0l0 0z" horiz-adv-x="1000" />

<glyph glyph-name="list-03" unicode="&#xe828;" d="M224 436h551c24 0 43 10 50 26 5 12 2 25-7 34-7 7-32 34-64 67-71 74-202 212-210 221 0 1-1 2-2 2-10 10-26 16-43 16-17 0-33-6-42-16-7-7-60-63-121-127-69-72-147-154-155-162l0-1c-10-10-12-23-7-35 7-15 27-25 50-25z m31 56c30 31 74 78 122 128l11 11c49 52 99 105 108 114 1 0 2 1 4 1 2 0 4-1 5-1 17-19 87-93 209-220l9-9c8-9 15-16 22-23l-490-1 0 0z m570-253c-7 15-27 25-50 25h-551c-23 0-43-10-50-26-5-12-2-25 8-34 6-7 31-34 63-67 71-74 202-212 210-222 0 0 1-1 2-2 10-9 26-15 43-15 17 0 33 6 42 16 7 7 60 62 121 127 69 72 147 154 155 162l0 1c9 10 12 23 7 35l0 0z m-325-285c-2 0-4 1-5 1-17 19-88 93-209 221l-3 2c-10 11-20 21-28 30h489c-32-34-81-85-122-128l-5-5c-52-55-105-111-114-120-1-1-2-1-3-1z" horiz-adv-x="1000" />

<glyph glyph-name="list-down" unicode="&#xe829;" d="M825 239c-7 15-27 25-50 25h-551c-23 0-43-10-50-26-5-12-2-25 8-34 6-7 30-32 63-67 70-74 202-212 210-222 0 0 1-1 2-2 10-10 26-15 43-15h3c16 1 30 6 39 16 7 7 60 62 121 127 69 72 147 154 155 162l0 1c9 10 12 23 7 35l0 0z m-601 197h551c23 0 43 10 50 25 5 12 2 25-7 35l0 1c-8 8-86 90-155 162-61 64-114 120-121 127-9 10-25 16-42 16-17 0-33-6-43-16l-2-2c-8-9-139-147-210-221-32-34-57-60-64-67-9-9-12-22-7-34 7-16 26-26 50-26l0 0z m276 309c1 0 2 0 3 0 10-10 68-71 119-125l2-2c44-47 90-95 120-127h-489c8 9 18 19 28 30l3 2c121 128 192 202 209 221 1 1 3 1 5 1z" horiz-adv-x="1000" />

<glyph glyph-name="list-up" unicode="&#xe82a;" d="M224 436h551c24 0 43 10 50 26 5 12 2 25-7 34-7 7-32 34-64 67-71 74-202 212-210 221 0 1-1 2-2 2-10 10-26 16-43 16-17 0-33-6-42-16-7-7-60-63-121-127-69-72-147-154-155-162l0-1c-10-10-12-23-7-35 7-15 27-25 50-25z m601-197c-7 15-27 25-50 25h-551c-23 0-43-10-50-26-5-12-2-25 8-34 6-7 31-34 63-67 71-74 202-212 210-222 0 0 1-1 2-2 10-9 26-15 43-15 17 0 33 6 42 16 7 7 60 62 121 127 69 72 147 154 155 162l0 1c9 10 12 23 7 35l0 0z m-325-285c-2 0-4 1-5 1-17 19-88 93-209 221l-3 2c-10 11-20 21-28 30h489c-32-34-81-85-122-128l-5-5c-52-55-105-111-114-120-1-1-2-1-3-1z" horiz-adv-x="1000" />

<glyph glyph-name="location-o" unicode="&#xe82b;" d="M461 815c-160-17-289-145-309-304-11-82 8-159 45-223 75-157 224-331 281-394 12-14 34-14 46 0 61 67 223 257 293 420 22 46 35 98 35 152 0 207-179 372-391 349z m70-526c-122-15-225 88-209 210 10 83 77 150 161 161 122 15 225-88 209-210-10-83-78-150-161-161l0 0z" horiz-adv-x="1000" />

<glyph glyph-name="location" unicode="&#xe82c;" d="M500 299c97 0 176 79 176 176s-79 176-176 176c-97 0-176-79-176-176s79-176 176-176z m0 520c-194 0-351-155-351-351 0-205 176-415 304-563 0-1 21-24 46-24h2c26 0 46 23 47 24 128 148 304 357 304 563 0 195-158 351-352 351l0 0z m4-876c-1 0-3-2-4-3-1 1-3 3-4 4-108 124-289 333-289 524 0 161 132 292 293 292 162 0 293-131 293-293 0-190-181-399-289-524l0 0 0 0z" horiz-adv-x="1000" />

<glyph glyph-name="lock-e" unicode="&#xe82d;" d="M824 420h-539v77c0 118 97 215 215 215 81 0 152-46 189-112l59 37c-49 86-142 145-248 145-157 0-285-128-285-285v-77h-39c-44 0-80-36-80-80v-319c0-44 36-80 80-80h647c44 0 80 36 80 80v319c1 44-35 80-79 80l0 0z m-268-307c0-28-23-50-50-50h-11c-28 0-50 22-50 50v94c0 27 22 50 50 50h11c27 0 50-23 50-50v-94z m268 307h-539v77c0 118 97 215 215 215 81 0 152-46 189-112l59 37c-49 86-142 145-248 145-157 0-285-128-285-285v-77h-39c-44 0-80-36-80-80v-319c0-44 36-80 80-80h647c44 0 80 36 80 80v319c1 44-35 80-79 80l0 0z m-268-307c0-28-23-50-50-50h-11c-28 0-50 22-50 50v94c0 27 22 50 50 50h11c27 0 50-23 50-50v-94z m268 312h-539v77c0 118 97 215 215 215 81 0 152-46 189-112l59 37c-49 86-142 145-248 145-157 0-285-128-285-285v-77h-39c-44 0-80-36-80-80v-319c0-44 36-80 80-80h647c44 0 80 36 80 80v319c1 44-35 80-79 80l0 0z m-268-307c0-28-23-50-50-50h-11c-28 0-50 22-50 50v94c0 27 22 50 50 50h11c27 0 50-23 50-50v-94z m268 302h-539v77c0 118 97 215 215 215 81 0 152-46 189-112l59 37c-49 86-142 145-248 145-157 0-285-128-285-285v-77h-39c-44 0-80-36-80-80v-319c0-44 36-80 80-80h647c44 0 80 36 80 80v319c1 44-35 80-79 80l0 0z m-268-307c0-28-23-50-50-50h-11c-28 0-50 22-50 50v94c0 27 22 50 50 50h11c27 0 50-23 50-50v-94z m268 312h-539v77c0 118 97 215 215 215 81 0 152-46 189-112l59 37c-49 86-142 145-248 145-157 0-285-128-285-285v-77h-39c-44 0-80-36-80-80v-319c0-44 36-80 80-80h647c44 0 80 36 80 80v319c1 44-35 80-79 80l0 0z m-268-307c0-28-23-50-50-50h-11c-28 0-50 22-50 50v94c0 27 22 50 50 50h11c27 0 50-23 50-50v-94z m268 302h-539v77c0 118 97 215 215 215 81 0 152-46 189-112l59 37c-49 86-142 145-248 145-157 0-285-128-285-285v-77h-39c-44 0-80-36-80-80v-319c0-44 36-80 80-80h647c44 0 80 36 80 80v319c1 44-35 80-79 80z m-268-307c0-28-23-50-50-50h-11c-28 0-50 22-50 50v94c0 27 22 50 50 50h11c27 0 50-23 50-50v-94z" horiz-adv-x="1000" />

<glyph glyph-name="member-list" unicode="&#xe82f;" d="M569 49h21c18 0 31 12 31 31 0 18-13 31-31 31h-21c-18 0-31-13-31-31 0-19 12-31 31-31z m107 155c0-18 12-31 31-31h148c18 0 31 13 31 31 0 19-13 31-31 31h-148c-16 0-31-15-31-31z m126 302c0 161-131 291-291 291s-292-130-292-291c0-106 59-203 151-254-125-47-221-157-252-292-2-8 0-16 3-23 4-7 11-13 19-14h6c16 0 28 10 31 24 38 155 175 268 325 268h9c78 0 151 30 206 85 55 55 85 128 85 206l0 0z m-62 0c0-126-103-229-229-229-129 0-230 101-230 229 0 127 103 230 230 230s229-103 229-230z m114-396h-166c-18 0-31-12-31-31 0-17 14-31 31-31h166c18 0 31 13 31 31 0 19-12 31-31 31z m-263-127h-21c-18 0-31-13-31-31 0-19 13-31 31-31h21c18 0 31 12 31 31 0 17-13 31-31 31z m263 2h-166c-18 0-31-13-31-31 0-19 12-31 31-31h166c18 0 31 12 31 31 0 18-12 31-31 31z m-285 69h21c18 0 31 12 31 31 0 18-13 31-31 31h-21c-18 0-31-13-31-31 0-19 12-31 31-31z m107 155c0-18 12-31 31-31h148c18 0 31 13 31 31 0 19-13 31-31 31h-148c-16 0-31-15-31-31z m126 302c0 161-131 291-291 291s-292-130-292-291c0-106 59-203 151-254-125-47-221-157-252-292-2-8 0-16 3-23 4-7 11-13 19-14h6c16 0 28 10 31 24 38 155 175 268 325 268h9c78 0 151 30 206 85 55 55 85 128 85 206l0 0z m-62 0c0-126-103-229-229-229-129 0-230 101-230 229 0 127 103 230 230 230s229-103 229-230z m114-396h-166c-18 0-31-12-31-31 0-17 14-31 31-31h166c18 0 31 13 31 31 0 19-12 31-31 31z m-263-127h-21c-18 0-31-13-31-31 0-19 13-31 31-31h21c18 0 31 12 31 31 0 17-13 31-31 31z m263 2h-166c-18 0-31-13-31-31 0-19 12-31 31-31h166c18 0 31 12 31 31 0 18-12 31-31 31z m-285 59h21c18 0 31 12 31 31 0 18-13 31-31 31h-21c-18 0-31-13-31-31 0-19 12-31 31-31z m107 155c0-18 12-31 31-31h148c18 0 31 13 31 31 0 19-13 31-31 31h-148c-16 0-31-15-31-31z m126 302c0 161-131 291-291 291s-292-130-292-291c0-106 59-203 151-254-125-47-221-157-252-292-2-8 0-16 3-23 4-7 11-13 19-14h6c16 0 28 10 31 24 38 155 175 268 325 268h9c78 0 151 30 206 85 55 55 85 128 85 206l0 0z m-62 0c0-126-103-229-229-229-129 0-230 101-230 229 0 127 103 230 230 230s229-103 229-230z m114-396h-166c-18 0-31-12-31-31 0-17 14-31 31-31h166c18 0 31 13 31 31 0 19-12 31-31 31z m-263-127h-21c-18 0-31-13-31-31 0-19 13-31 31-31h21c18 0 31 12 31 31 0 17-13 31-31 31z m263 2h-166c-18 0-31-13-31-31 0-19 12-31 31-31h166c18 0 31 12 31 31 0 18-12 31-31 31z" horiz-adv-x="1000" />

<glyph glyph-name="member-profile" unicode="&#xe830;" d="M781 504c0 161-130 291-291 291-161 0-291-130-291-291 0-106 58-203 151-254-123-47-219-155-253-290v-1c-1-8 0-17 5-23 4-7 12-12 20-13h6c16 0 28 10 31 24 18 76 61 145 120 193 59 49 132 75 205 75h6c77-1 150 29 205 83 55 55 86 129 86 206l0 0z m-62 0c0-126-103-229-229-229s-230 103-230 229 103 230 230 230c126 0 229-103 229-230z m115-290h-229c-41 0-73-32-73-72v-167c0-41 32-73 73-73h229c40 0 72 32 72 73v167c0 39-34 72-72 72l0 0z m10-72v-167c0-7-4-11-11-11h-229c-7 0-11 4-11 11v167c0 7 4 11 11 11h229c8 0 11-4 11-11l0 0z m-60-95h-128c-16 0-27-11-27-27 0-16 11-28 27-28h128c16 0 27 11 27 28 0 15-12 27-27 27z m-128 26h35c16 0 28 11 28 28 0 16-11 27-28 27h-35c-16 0-27-11-27-27 0-16 11-28 27-28z" horiz-adv-x="1000" />

<glyph glyph-name="member-team" unicode="&#xe831;" d="M980 104c-30 85-92 153-172 192 40 41 64 96 64 155 0 109-77 201-184 220h-1c-15 1-28-8-32-23-4-16 6-32 22-37h0c78-13 134-81 134-160 0-59-32-114-84-142-10-6-16-16-16-26 0-17 14-30 30-31 4 0 7 1 10 2 80-28 143-90 172-170 1-5 1-10-2-14-3-4-7-6-11-6h-3c-17-1-30-15-29-32 1-16 14-28 30-28h2c24 0 47 11 60 31 15 20 19 46 10 69l0 0z m-389 194c49 47 79 113 79 186 0 142-116 258-258 258s-259-116-259-258c0-73 31-139 80-186-97-45-171-126-208-228-9-25-6-54 10-77 16-22 40-35 68-35 16 0 30 13 30 30s-14 30-30 30c-7 0-14 4-18 10-5 6-6 14-3 22 35 97 111 172 208 206 37-20 78-31 122-31 44 0 86 11 122 31 98-34 173-109 209-206 2-8 1-16-3-22-4-6-11-10-18-10-17 0-30-13-30-30s13-30 30-30h0c27 0 52 13 67 35 16 23 20 51 11 77-38 102-113 183-209 228l0 0z m-378 186c0 109 89 198 199 198s198-89 198-198-89-199-198-199-199 89-199 199z" horiz-adv-x="1004" />

<glyph glyph-name="member" unicode="&#xe832;" d="M791 506c0 161-130 291-291 291s-291-130-291-291c0-108 60-206 153-257-123-49-217-157-249-289-1-8 0-16 4-23 4-7 11-13 19-14h6c15 0 27 10 30 24 37 156 174 268 326 268h2c161 0 291 131 291 291z m-291-229c-126 0-229 103-229 229s103 230 229 230 230-103 230-230-103-229-230-229z m383-317v0c-23 97-79 181-158 236l-21 14 0 1c-16 9-34 5-43-10-10-15-5-33 9-42l21-15c68-47 115-118 133-200 3-15 16-25 31-25h7l2 2c14 8 22 23 19 39z" horiz-adv-x="1000" />

<glyph glyph-name="news-o" unicode="&#xe833;" d="M833 816h-620c-106 0-193-86-193-193v-400c0-90 74-163 164-163h101l148-149c18-18 42-28 67-28h1c25 0 49 10 67 28l148 149h101c90 0 164 73 164 163v446c-1 81-67 147-148 147z m-174-484h-341c-7 0-13 2-18 7-6 5-9 11-9 19-1 15 11 28 26 29h342c15 0 27-13 28-28 0-15-13-27-28-27l0 0z m89 167c-5-6-11-9-19-9h-478c-15 0-27 12-27 27 0 8 3 15 8 20 5 5 12 8 20 8h475c7 0 14-2 19-7s9-12 9-19c1-8-2-15-7-20z" horiz-adv-x="1000" />

<glyph glyph-name="news" unicode="&#xe834;" d="M833 816h-620c-106 0-193-86-193-193v-400c0-90 74-163 164-163h101l148-149c18-18 42-28 67-28h1c25 0 49 10 67 28l148 149h101c90 0 164 73 164 163v446c-1 81-67 147-148 147z m-620-55h620c51 0 92-41 92-92v-445c0-60-49-108-108-108h-125l-164-165c-16-15-40-15-56 0l-164 164h-124c-60 0-108 49-108 108v400c0 76 61 138 137 138z m446-374h-342c-15-1-27-14-26-29 0-8 3-14 9-19 5-5 11-7 18-7h341c15 0 28 12 28 27-1 15-13 28-28 28z m-408 103h478c8 0 14 3 19 9s8 12 7 20c0 7-3 14-9 19s-12 7-19 7h-475c-8 0-15-3-20-8-5-5-8-12-8-20 0-15 12-27 27-27z" horiz-adv-x="1000" />

<glyph glyph-name="order" unicode="&#xe835;" d="M860 796h-88c-14 0-30-11-30-30 0-19 12-30 30-30h88c22 0 42-20 42-42v-698c0-22-20-42-42-42h-719c-23 0-42 20-42 42v698c0 23 19 42 42 42h97c14 0 30 11 30 30 0 19-12 30-30 30h-97c-57 0-99-42-99-99v-697c0-57 42-99 99-99h719c56 0 99 42 99 99v697c-1 55-45 99-99 99z m-479-57h235c14 0 30 11 30 30 0 19-12 30-30 30h-235c-14 0-30-11-30-30s16-30 30-30z m-126-201c0-19 11-30 30-30h453c14 0 30 11 30 30 0 18-12 30-30 30h-453c-15 0-30-11-30-30z m483-161h-453c-15 0-30-11-30-30 0-18 11-30 30-30h453c14 0 30 11 30 30 0 19-12 30-30 30z m-453-191c-15 0-30-11-30-30 0-18 11-30 30-30h453c14 0 30 11 30 30 0 19-12 30-30 30h-453z" horiz-adv-x="1000" />

<glyph glyph-name="pay" unicode="&#xe836;" d="M817 830h-633c-90 0-164-76-164-170v-619c0-95 74-171 164-171h633c90 0 164 76 164 171v619c-1 94-74 170-164 170z m108-331h-266c-81 0-148-67-148-148 0-82 66-148 148-149h266v-161c0-64-48-115-108-115h-633c-60 0-108 51-108 115v619c0 62 46 113 104 115h637c60 0 108-52 108-115v-161z m-266-242c-52 0-93 42-93 93s41 93 93 93h266v-186h-266z m90 143c-26-1-47-22-48-47-1-28 20-52 48-53h0c28 0 50 22 50 50 0 28-22 50-50 50l0 0z" horiz-adv-x="1000" />

<glyph glyph-name="phone" unicode="&#xe837;" d="M460-16c0-22 18-40 40-40 22 0 40 18 40 40l0 0c0 22-18 40-40 40-22 0-40-18-40-40 0 0 0 0 0 0z m291 831h-502c-35 0-64-29-64-65v-800c0-36 29-65 64-65h502c35 0 64 29 64 65v800c0 36-29 65-64 65z m9-788v-77c0-4-6-10-10-10h-500c-3 0-10 6-10 10v78h520v-1z m0 583v-528h-520v528c0 0 520 0 520 0z m-520 55v85c0 4 6 10 10 10h500c4 0 10-6 10-10v-85h-520z m323 75h-125c-15 0-28-12-28-27s12-28 28-28h125c15 0 27 13 27 28s-12 27-27 27z" horiz-adv-x="1000" />

<glyph glyph-name="reduce" unicode="&#xe838;" d="M875 319h-750c-17 0-31 14-31 31s14 31 31 31h750c17 0 31-14 31-31 0-17-14-31-31-31z" horiz-adv-x="1000" />

<glyph glyph-name="refresh" unicode="&#xe839;" d="M971 444c-1 8-4 16-10 21-13 11-32 10-43-3l-45-51c-5 36-15 70-29 104-21 50-51 95-90 134-79 80-186 124-300 124-57 0-112-11-164-33-51-21-96-52-135-90-39-40-70-85-91-135-22-52-33-108-33-165s11-112 33-164c21-51 52-96 91-135s84-70 134-91c52-22 108-33 165-33 51 0 101 9 149 27 46 18 88 43 126 75 6 5 10 13 10 21s-2 16-7 22-12 10-20 10-16-2-22-7c-32-27-69-49-108-64-41-16-84-23-128-23-49 0-97 9-141 29-43 18-82 44-116 77-33 34-59 72-77 116-19 44-29 92-29 141s10 96 29 141c18 43 44 82 77 115 34 34 72 60 116 78 44 19 92 28 141 28 98 0 189-37 257-106 57-57 93-132 103-212l-81 57c-6 4-14 6-22 5-8-2-15-6-20-13-4-6-6-14-5-22s6-15 13-20l130-92c5-3 11-5 17-5 9 0 17 3 23 10l95 107c5 6 7 14 7 22l0 0z" horiz-adv-x="1001" />

<glyph glyph-name="return" unicode="&#xe83a;" d="M917 759h-162v38c0 17-13 30-29 30h-450c-16 0-29-13-29-30v-38h-162c-16 0-29-13-29-29v-832c0-16 13-29 29-29h831c17 0 30 13 30 29v832c0 16-13 29-29 29z m-221-68h-390v76h390c0 0 0-76 0-76z m-420-59h449c17 0 30 13 30 30v38h132v-772h-772v772h132v-38c0-17 13-30 29-30z m174-476c17-2 54-3 110-3 42 0 95 1 159 2-9-22-16-41-21-56l-153 1-92 2c-13 0-28 3-44 9-16 6-31 17-44 32l-47-53-24 65c12 12 26 24 42 38v115h-40v57h94v-177c12-15 29-25 51-30l-22 38c8 10 13 23 13 40v262h241v-186l34-39c-22-14-43-27-64-39 19-13 38-26 55-39l-39-39-100 74c0-18-1-32-1-41-53-13-90-24-108-33l0 0z m-101 360c24-30 44-56 59-79l-50-33c-19 30-38 57-55 81l46 31z m268-68h-131v-29h132l-1 29z m0-103v29h-131v-29h131z m-68-107l-34 24 33 33h-62v-73c19 4 40 10 63 16z m97 57h-94l48-32c16 10 31 21 46 32z" horiz-adv-x="1000" />

<glyph glyph-name="round-add-o" unicode="&#xe83b;" d="M811 661c-83 83-194 129-311 129-117 0-228-46-311-129-83-83-128-194-128-311 0-117 45-228 128-311s194-129 311-129c117 0 228 46 311 129 83 83 129 194 129 311 0 117-46 228-129 311z m-92-342h-188v-187c0-18-14-31-31-31-17-1-31 13-31 31v187h-187c-18 0-31 14-31 31-1 18 13 31 31 31h187v188c0 18 14 31 31 31 18 0 31-14 31-31v-188h188c18 0 31-14 31-31 0-17-14-31-31-31z" horiz-adv-x="1000" />

<glyph glyph-name="round-add" unicode="&#xe83c;" d="M719 381h-188v188c0 17-13 31-31 31-17 0-31-13-31-31v-188h-187c-18 0-32-13-31-31 0-17 13-31 31-31h187v-187c0-18 14-32 31-31 17 0 31 13 31 31v187h188c17 0 31 14 31 31 0 17-13 31-31 31z m92 280c-83 83-194 129-311 129-117 0-228-46-311-129-83-83-128-194-128-311 0-117 45-228 128-311s194-129 311-129c117 0 228 46 311 129 83 83 129 194 129 311 0 117-46 228-129 311z m-39-583c-72-73-169-114-271-114s-199 41-272 114c-72 72-112 169-112 272s40 199 112 272c73 72 169 112 271 112 103 0 199-40 272-112 72-73 112-170 112-272s-40-199-112-272z" horiz-adv-x="1000" />

<glyph glyph-name="round-arrow-down-o" unicode="&#xe83d;" d="M814 663c-84 84-195 130-313 130-118 0-229-46-313-130-83-83-129-194-129-312 0-118 46-229 129-313 84-84 195-130 313-130 119 0 230 46 313 130 84 84 130 195 130 313-1 118-47 229-130 312l0 0z m-69-265c-2-4-4-8-7-10l-216-196c-2-3-5-4-8-6l-1-1c-4-1-8-2-12-2-4 0-8 1-11 2-4 3-7 4-10 7l-216 196c-3 3-5 7-7 10-1 3-2 7-2 11 0 9 3 16 9 22 5 6 13 9 21 9 4 0 8-1 12-2 4-2 7-5 9-7l194-177 196 177c2 2 5 5 9 6 4 2 8 2 12 2 8 0 16-3 21-8 6-6 9-13 9-21 0-5-1-9-2-12l0 0z" horiz-adv-x="1000" />

<glyph glyph-name="round-arrow-down" unicode="&#xe83e;" d="M717 439c-4 0-8 0-12-2-4-1-7-4-9-6l-196-177-194 177c-2 2-5 5-9 7-4 1-8 2-12 2-8 0-16-3-21-9-6-6-9-13-9-22 0-4 1-8 2-11 2-3 4-7 7-10l216-196c3-3 6-4 10-7 3-1 7-2 11-2 4 0 8 1 12 2l1 1c3 2 6 3 8 6l216 196c3 2 5 6 7 10 1 3 2 7 2 12 0 8-3 15-9 21-5 5-13 8-21 8z m97 224c-84 84-195 130-313 130-118 0-229-46-313-130-83-83-129-194-129-312 0-118 46-229 129-313 84-84 195-130 313-130 119 0 230 46 313 130 84 84 130 195 130 313-1 118-47 229-130 312l0 0z m-313-694c-102 0-198 40-270 112-72 72-111 168-111 270s39 197 111 270c73 72 168 112 270 112s198-40 270-112c73-72 112-168 112-270s-40-198-112-270c-72-72-168-112-270-112l0 0z" horiz-adv-x="1000" />

<glyph glyph-name="round-arrow-left-o" unicode="&#xe83f;" d="M814 664c-84 83-195 129-313 129-117 0-228-46-312-129-84-85-130-196-130-314 0-118 46-229 130-313 84-84 195-130 312-130 118 1 229 47 313 131s129 194 129 313c0 117-46 229-129 313l0 0z m-233-508c2-2 5-6 7-10 1-3 2-7 2-11 0-9-3-16-8-22-6-5-14-9-22-9-4 0-8 2-11 3-5 1-8 3-11 7l-196 215c-2 3-4 6-6 9l0 1c-2 3-2 7-2 11 0 5 0 8 2 12 2 4 4 6 6 9l197 217c3 3 7 5 10 6 3 2 7 2 11 2 9 0 16-3 22-8 5-6 8-14 8-22 0-4 0-7-2-11-2-4-5-8-7-10l-177-195 177-194 0 0z" horiz-adv-x="1000" />

<glyph glyph-name="round-arrow-left" unicode="&#xe840;" d="M590 135c0 4-1 8-2 11-2 4-5 8-7 10l-177 194 177 195c2 2 5 6 7 10 2 4 2 7 2 11 0 8-3 16-8 22-6 5-13 8-22 8-4 0-8 0-11-2-3-1-7-3-10-6l-197-217c-2-3-4-5-6-9-2-4-2-7-2-12 0-4 0-8 2-11l0-1c2-3 4-6 6-9l196-215c3-4 6-6 11-7 3-1 7-3 11-3 8 0 16 4 22 9 5 6 8 13 8 22z m224-97c83 83 129 194 129 313 0 117-46 229-129 313-84 83-195 129-313 129-117 0-228-46-312-129-84-85-130-196-130-314 0-118 46-229 130-313 84-84 195-130 312-130 118 1 229 47 313 131z m-694 312c0 102 39 198 111 270 73 72 169 112 270 112s198-40 270-112c72-72 112-168 112-270s-40-198-112-270c-72-72-168-112-270-112s-197 40-270 112c-72 73-111 169-111 270z" horiz-adv-x="1000" />

<glyph glyph-name="round-arrow-right-o" unicode="&#xe841;" d="M814 664c-84 83-195 129-313 129-118 0-229-46-313-130-83-83-129-194-129-312 0-118 46-229 130-313 83-84 194-130 312-130 118 0 229 46 313 130 83 84 129 195 129 313 0 118-46 229-129 313l0 0z m-148-326c-2-4-4-6-6-9l-197-216c-3-3-7-5-10-7-3-1-7-2-11-2-9 0-16 3-22 9-5 5-8 13-8 21 0 4 0 8 2 12 2 4 5 7 7 9l177 195-177 195c-2 2-5 6-7 10-1 3-2 7-2 11 0 9 3 16 8 22 6 5 14 9 22 9 4 0 8-2 11-3 5-1 8-3 11-7l196-216c2-3 4-6 6-9l0-1c2-3 2-7 2-11 0-5 0-8-2-12l0 0z" horiz-adv-x="1000" />

<glyph glyph-name="round-arrow-right" unicode="&#xe842;" d="M412 566c0-4 1-8 2-11 2-4 5-8 7-10l177-195-177-195c-2-2-5-5-7-9-2-4-2-8-2-12 0-8 3-16 8-21s13-9 22-9c4 0 8 1 11 2 3 2 7 4 10 7l197 216c2 3 4 5 6 9 2 4 2 7 2 12 0 4 0 8-2 11l0 1c-2 3-4 6-6 9l-196 216c-3 4-6 6-11 7-3 1-7 3-11 3-8 0-16-4-22-9-5-6-8-13-8-22z m-224 97c-83-83-129-194-129-312 0-118 46-229 130-313 83-84 194-130 312-130 118 0 229 46 313 130 83 84 129 195 129 313 0 118-46 229-129 313-84 83-195 129-313 129-118 0-229-46-313-130l0 0z m694-312c0-102-39-198-111-270-73-72-169-112-270-112s-198 40-270 112c-72 72-112 168-112 270s40 198 112 270c72 72 168 112 270 112s197-40 270-112c72-73 111-169 111-270z" horiz-adv-x="1000" />

<glyph glyph-name="round-arrow-up-o" unicode="&#xe843;" d="M814 663c-84 84-195 130-313 130-118 0-229-46-313-130-84-84-130-195-130-312 0-118 46-229 130-313 84-84 195-130 313-130 118 0 229 46 313 130s129 195 129 313c0 117-46 228-129 312l0 0z m-75-393c-6-6-13-9-21-9-5 0-8 1-12 2-4 2-7 5-9 7l-195 177-195-177c-2-2-5-5-9-7-4-1-8-2-12-2-8 0-16 3-22 9-5 6-8 13-8 21 0 5 0 8 2 12s3 7 6 10l216 196c3 3 6 5 10 7 7 3 15 3 23 0l1 0c3-2 6-4 9-7l215-196c3-2 6-6 8-11 1-2 2-6 2-11 0-8-3-15-9-21l0 0z" horiz-adv-x="1000" />

<glyph glyph-name="round-arrow-up" unicode="&#xe844;" d="M814 663c-84 84-195 130-313 130-118 0-229-46-313-130-84-84-130-195-130-312 0-118 46-229 130-313 84-84 195-130 313-130 118 0 229 46 313 130s129 195 129 313c0 117-46 228-129 312l0 0z m-313-695c-102 0-198 41-270 113-72 72-111 168-111 270s39 197 111 270c73 72 169 111 270 111s198-39 270-111c72-72 112-168 112-270s-40-198-112-270c-72-73-168-113-270-113l0 0z m237 345l-215 196c-3 3-6 5-9 7l-1 0c-8 3-16 3-23 0-4-2-7-4-10-7l-216-196c-3-3-5-7-6-10-2-4-2-7-2-12 0-8 3-15 8-21 6-6 14-9 22-9 4 0 8 1 12 2 4 2 7 5 9 7l195 177 195-177c2-2 5-5 9-7 4-1 7-2 12-2 8 0 15 3 21 9 6 6 9 13 9 21 0 5-1 9-2 11-2 5-5 9-8 11l0 0z" horiz-adv-x="1000" />

<glyph glyph-name="round-check-o" unicode="&#xe845;" d="M814 663c-84 84-195 130-313 130-117 0-228-46-312-130-84-84-130-195-130-313 0-118 46-229 130-313 84-84 195-130 312-130 118 0 229 46 313 130s129 195 129 313c0 118-46 229-129 313l0 0z m-105-208l-250-253v-1c-2-2-4-3-7-4-1-1-2-2-3-2-4-2-8-3-12-3s-8 1-12 3c-1 0-2 1-3 2-3 2-5 3-7 5h0l-123 126c-12 13-12 32 0 44 13 12 32 12 44 0l101-104 228 231c12 12 31 12 43 1 1-1 1-1 1-1 12-12 12-32 0-44z" horiz-adv-x="1000" />

<glyph glyph-name="round-check" unicode="&#xe846;" d="M814 38c83 83 129 194 129 313 0 117-46 229-129 313-84 83-195 129-313 129-117 0-228-46-312-129-84-85-130-196-130-314 0-118 46-229 130-313 84-84 195-130 312-130 118 1 229 47 313 131z m-694 312c0 102 39 198 111 270 73 72 169 112 270 112s198-40 270-112c72-72 112-168 112-270s-40-198-112-270c-72-72-168-112-270-112s-197 40-270 112c-72 73-111 169-111 270z m589 149c-13 12-32 12-44-1l-228-230-101 104c-12 13-32 13-44 1-12-12-12-32 0-44l123-127h0c2-2 5-3 7-4 1-1 2-2 3-2 4-2 8-3 12-3s8 1 12 3c1 0 2 1 3 2 3 1 5 2 7 4l250 253c12 12 12 32 0 44z" horiz-adv-x="1000" />

<glyph glyph-name="round-close-o" unicode="&#xe847;" d="M814 663c-84 84-195 130-313 130-117 0-228-46-312-130-84-84-130-195-130-313 0-118 46-229 130-313 84-84 195-130 312-130 118 0 229 46 313 130s129 195 129 313c0 118-46 229-129 313l0 0z m-135-448c12-12 12-32 0-44-6-6-14-9-22-9-8 0-16 3-22 9l-135 135-135-133c-6-6-14-9-22-9s-16 3-22 9c-12 13-12 32 0 44l135 133-134 135c-12 12-12 32 0 44 12 12 32 12 44 0l134-135 135 134c13 12 32 12 44 0 12-13 12-32 0-44l-134-134 134-135z" horiz-adv-x="1000" />

<glyph glyph-name="round-close" unicode="&#xe848;" d="M814 38c83 83 129 194 129 313 0 117-46 229-129 313-84 83-195 129-313 129-117 0-228-46-312-129-84-85-130-196-130-314 0-118 46-229 130-313 84-84 195-130 312-130 118 1 229 47 313 131z m-694 312c0 102 39 198 111 270 73 72 169 112 270 112s198-40 270-112c72-72 112-168 112-270s-40-198-112-270c-72-72-168-112-270-112s-197 40-270 112c-72 73-111 169-111 270z m559-135c12-12 12-32 0-44-6-6-14-9-22-9-8 0-16 3-22 9l-135 135-135-133c-6-6-14-9-22-9s-16 3-22 9c-12 13-12 32 1 44l134 133-134 135c-12 12-12 32 0 44 12 12 32 12 44 0l134-135 135 134c12 12 32 12 44-1 12-12 12-32 0-44l-134-133 134-135z" horiz-adv-x="1000" />

<glyph glyph-name="round-info-o" unicode="&#xe849;" d="M814 663c-84 84-195 130-313 130-117 0-228-46-312-130-84-84-130-195-130-313 0-118 46-229 130-313 84-84 195-130 312-130 118 0 229 46 313 130s129 195 129 313c0 118-46 229-129 313l0 0z m-263-43l-14-367h-74l-14 367h102z m-51-539c-36 0-60 26-59 61 0 36 24 62 59 62 36 0 59-25 60-62 0-35-24-61-60-61z" horiz-adv-x="1000" />

<glyph glyph-name="round-info" unicode="&#xe84a;" d="M814 38c83 83 129 194 129 313 0 117-46 229-129 313-84 83-195 129-313 129-117 0-228-46-312-129-84-85-130-196-130-314 0-118 46-229 130-313 84-84 195-130 312-130 118 1 229 47 313 131z m-694 312c0 102 39 198 111 270 73 72 169 112 270 112s198-40 270-112c72-72 112-168 112-270s-40-198-112-270c-72-72-168-112-270-112s-197 40-270 112c-72 73-111 169-111 270z m321-208c0 36 24 61 59 61 36 0 59-25 60-61 0-36-24-62-60-62-36 1-60 27-59 62z m22 111l-14 367h102l-14-367c0 0-74 0-74 0z" horiz-adv-x="1000" />

<glyph glyph-name="round-question-o" unicode="&#xe84b;" d="M814 663c-84 84-195 130-313 130-117 0-228-46-312-130-84-84-130-195-130-313 0-118 46-229 130-313 84-84 195-130 312-130 118 0 229 46 313 130s129 195 129 313c0 118-46 229-129 313l0 0z m-285-540c-9-9-20-13-35-13-14 0-26 4-35 13-9 9-13 21-13 35 0 15 4 26 13 36 9 9 21 13 35 13 14 0 26-4 35-13 9-9 14-21 14-36 0-14-5-25-14-35z m102 270c-13-19-31-36-54-50-22-13-37-25-45-37-8-12-12-27-12-46v-22h-61v32c0 23 6 43 17 60 12 17 29 33 53 47 21 12 35 25 44 37 9 13 13 28 13 47 0 22-8 40-24 54-15 14-36 22-62 22-27 0-48-8-64-22-16-15-25-35-27-60h-60c2 38 16 70 41 96 26 27 63 40 112 40 44 0 80-12 107-36 28-24 41-55 41-91 1-27-6-51-19-71l0 0z" horiz-adv-x="1000" />

<glyph glyph-name="round-question" unicode="&#xe84c;" d="M814 38c83 83 129 194 129 313 0 117-46 229-129 313-84 83-195 129-313 129-117 0-228-46-312-129-84-85-130-196-130-314 0-118 46-229 130-313 84-84 195-130 312-130 118 1 229 47 313 131z m-694 312c0 102 39 198 111 270 73 72 169 112 270 112s198-40 270-112c72-72 112-168 112-270s-40-198-112-270c-72-72-168-112-270-112s-197 40-270 112c-72 73-111 169-111 270z m271 201c25 27 62 40 112 40 44 0 80-12 107-36 27-24 41-55 41-91 0-27-7-51-20-71-13-19-31-36-54-50-22-13-37-25-45-37-8-12-12-27-12-46v-22h-61v32c0 23 6 43 17 60 12 17 29 33 53 47 21 12 35 25 44 37 8 13 13 28 13 47 0 22-8 40-24 54-15 14-36 22-62 22-27 0-48-8-64-22-16-15-25-35-27-60h-60c3 38 16 70 42 96z m69-428c-9 9-14 21-14 35 0 15 5 26 14 36 9 9 21 13 35 13s26-4 35-13c9-9 13-21 13-36 0-14-4-26-13-35-9-9-21-13-35-13s-26 4-35 13z" horiz-adv-x="1000" />

<glyph glyph-name="round-reduce-o" unicode="&#xe84d;" d="M811 661c-83 83-194 129-311 129-117 0-228-46-311-129-83-83-128-194-128-311 0-117 45-228 128-311s194-129 311-129c117 0 228 46 311 129 83 83 129 194 129 311 0 117-46 228-129 311z m-92-342h-437c-18 0-31 14-31 31-1 18 13 31 31 31h437c18 0 31-14 31-31 0-17-14-31-31-31z" horiz-adv-x="1000" />

<glyph glyph-name="round-reduce" unicode="&#xe84e;" d="M282 381h437c18 0 31-14 31-31 0-17-14-31-31-31h-437c-18 0-31 14-31 31-1 18 13 31 31 31z m529 280c-83 83-194 129-311 129-117 0-228-46-311-129-83-83-128-194-128-311 0-117 45-228 128-311s194-129 311-129c117 0 228 46 311 129 83 83 129 194 129 311 0 117-46 228-129 311z m73-311c0-103-40-199-112-272-72-73-169-114-271-114s-199 41-272 114c-72 72-112 169-112 272s40 199 112 272c73 72 169 112 271 112 103 0 199-40 272-112 72-73 112-170 112-272z" horiz-adv-x="1000" />

<glyph glyph-name="save" unicode="&#xe84f;" d="M613 718c-17 0-30-14-30-30v-180c0-17 13-30 30-30 16 0 30 13 30 30v180c0 16-14 30-30 30z m225 90h-795v-795c0-67 54-121 120-121h630c16 0 30 14 30 30s-14 30-30 30h-630c-33 0-60 27-60 61v735h75v-285c0-66 54-120 120-120h382c66 0 120 54 120 120v285h38c33 0 60-27 60-60v-766c0-16 13-30 30-30s30 14 30 30v766c0 66-54 120-120 120z m-158-405h-382c-33 0-60 27-60 60v285h502v-285c0-33-27-60-60-60l0 0z" horiz-adv-x="1000" />

<glyph glyph-name="search" unicode="&#xe850;" d="M962-71l-212 212c63 72 101 166 101 269 0 226-184 410-410 410s-411-184-411-410 184-411 411-411c103 0 197 38 269 101l211-212c6-6 13-8 21-9 7 0 15 3 20 9 11 11 11 30 0 41l0 0z m-521 834c194 0 352-159 353-353 0-195-159-353-353-353-195 0-353 158-353 353 0 194 158 353 353 353z" horiz-adv-x="1000" />

<glyph glyph-name="security" unicode="&#xe851;" d="M502-141c-156 0-436 244-440 484v274c2 43 35 79 78 85 53 5 106 18 156 38 53 16 101 42 142 78 33 27 80 29 116 5 43-33 92-61 143-82 53-16 107-28 162-37 43-8 74-44 76-87 4-93 3-186-3-279-37-309-278-479-430-479z m0 924c-9 0-17-3-24-8-47-41-102-72-162-89-55-23-114-37-173-42-13-4-22-15-23-29v-272c4-213 263-427 382-427s340 143 375 427c9 168 0 270 0 271-1 15-13 28-28 32-59 9-117 23-173 40-55 23-106 54-153 91-7 4-15 6-23 6l2 0 0 0z m-25-610c-13-12-32-14-47-5l-8 7-154 164c-15 16-14 40 2 55 16 15 41 14 56-2l128-136 256 243c16 14 40 13 55-3 15-16 14-40-2-55" horiz-adv-x="1000" />

<glyph glyph-name="setting-o" unicode="&#xe852;" d="M368 351c0-73 59-133 132-133 73 0 133 60 133 133 0 0 0 0 0 0 0 73-60 132-133 132s-132-59-132-132c0 0 0 0 0 0z m568-105c-55 59-55 151-1 210 20 21 26 52 15 78-17 41-40 80-67 115-18 22-47 32-75 26-38-9-77-3-111 17s-59 51-71 88c-8 28-32 48-60 51-44 6-89 6-133 0-28-3-51-23-59-51-12-37-37-68-71-88s-73-25-111-17c-27 7-57-4-74-26-28-35-50-74-67-115-11-26-5-57 14-78 55-59 55-151 0-210-19-21-25-51-14-78 17-41 39-80 67-115 17-22 47-32 74-26 78 18 158-29 182-105 8-28 32-48 60-52 22-3 44-4 66-4s45 1 67 4c28 4 51 24 60 52 11 37 36 68 70 88 34 20 74 26 112 17 27-6 57 4 74 26 28 35 50 74 67 115 11 27 5 57-14 78l0 0z m-436-83c-103 0-188 84-188 188s85 188 188 188 188-85 188-188-84-188-188-188z" horiz-adv-x="1000" />

<glyph glyph-name="setting" unicode="&#xe853;" d="M935 456c20 21 26 52 15 78-17 41-40 80-67 115-18 22-47 32-75 26-38-9-77-3-111 17s-59 51-71 88c-8 28-32 48-60 51-44 6-89 6-133 0-28-3-51-23-59-51-12-37-37-68-71-88s-73-25-111-17c-27 7-57-4-74-26-28-35-50-74-67-115-11-26-5-57 14-78 55-59 55-151 0-210-19-21-25-51-14-78 17-41 39-80 67-115 17-22 47-32 74-26 78 18 158-29 182-105 8-28 32-48 60-52 22-3 44-4 66-4s45 1 67 4c28 4 51 24 60 52 11 37 36 68 70 88 34 20 74 26 112 17 27-6 57 4 74 26 28 35 50 74 67 115 11 27 5 57-14 78-55 59-55 151-1 210z m-829-248c36 39 56 90 56 143 0 53-20 103-56 142-5 5-6 13-4 19 15 37 35 71 59 102 5 5 12 8 19 6 51-12 105-3 151 23 46 26 80 69 96 120 2 6 7 12 14 13 39 5 79 5 118 0 7-1 12-6 14-13 16-51 50-94 96-120s100-35 152-23c7 1 14-1 18-6 25-31 44-66 59-102 3-6 1-14-4-19-36-39-56-90-56-143s20-104 56-143c5-5 7-12 4-19-15-36-35-71-59-102-4-5-12-7-19-6-108 24-214-37-247-143-2-7-7-12-14-13-39-6-79-6-118 0-7 1-12 6-14 13-28 89-109 148-201 148-16 0-31-1-46-5-7-1-14 1-19 6-24 31-44 66-59 102-2 7-1 15 4 20l0 0z m394-45c104 0 188 84 188 188s-84 188-188 188-188-85-188-188 85-188 188-188z m0 320c73 0 133-59 133-132s-60-133-133-133-132 60-132 133 59 132 132 132z" horiz-adv-x="1000" />

<glyph glyph-name="share-o" unicode="&#xe854;" d="M773 257c-53 0-103-24-138-66l-164 82c10 26 15 53 15 80 0 27-5 54-15 80 0 0 0 0 0 0l154 96c33-49 88-79 148-79 99 0 179 80 179 179s-80 179-179 179-179-81-179-179c0-15 2-29 6-43l-159-99c-42 55-108 88-177 88-122 0-222-100-222-222s100-221 222-221c69 0 135 33 177 88h0l164-81c-7-20-11-40-11-61 0-99 81-179 179-179s179 80 179 179c0 98-80 178-179 179z" horiz-adv-x="1000" />

<glyph glyph-name="share" unicode="&#xe855;" d="M773 257c-53 0-103-24-138-66l-164 82c10 26 15 53 15 80 0 27-5 54-15 80 0 0 0 0 0 0l154 96c33-49 88-79 148-79 99 0 179 80 179 179s-80 179-179 179-179-81-179-179c0-15 2-29 6-43l-159-99c-42 55-108 88-177 88-122 0-222-100-222-222s100-221 222-221c69 0 135 33 177 88h0l164-81c-7-20-11-40-11-61 0-99 81-179 179-179s179 80 179 179c0 98-80 178-179 179z m118-180c0-65-53-118-118-118-65 0-118 53-118 118 0 65 53 118 117 118 66 0 119-53 119-118z m-236 552c0 65 53 118 118 118 65 0 117-53 118-118 0-65-53-117-118-118-65 0-118 53-118 118l0 0z m-231-276c0-88-72-160-160-160-88 0-160 72-160 160s72 161 160 161c88-1 160-72 160-161z" horiz-adv-x="1000" />

<glyph glyph-name="shipping-02" unicode="&#xe856;" d="M359 146c3-14 15-23 29-23h7l495 125c7 2 14 7 18 14 4 7 6 15 4 23l-126 494c-1 8-6 14-14 19-7 4-15 5-22 3l-495-125c-8-2-14-7-18-14-4-7-5-15-3-23l125-493 0 0z m-60 479l437 111 110-437-436-110-111 436z m269-214c2 0 5 0 8 1l159 40c17 4 26 21 22 37-4 16-21 26-37 21l-160-40c-8-2-14-7-18-14-4-7-5-15-3-22 3-14 15-23 29-23l0 0z m-104-140c2 0 5 0 8 1l290 74c17 4 26 21 22 37-4 16-21 26-37 21l-290-74c-8-2-15-7-19-14-4-7-5-15-3-22 3-14 15-23 29-23l0 0z m458-77c-2 8-7 15-14 19-7 4-15 5-23 3l-506-129c-13 10-28 18-44 22l-131 490c-2 7-7 13-14 18l-108 62c-7 4-15 5-22 3-8-2-15-7-19-14-8-14-3-32 11-41l97-56 125-467c-40-15-69-54-69-99 0-59 48-107 106-107s107 48 107 107c0 10-2 20-5 29l487 124c17 4 26 20 22 36z m-564-189c0-26-21-47-46-47s-47 21-47 47c0 25 21 46 47 46 13 0 24-5 33-13 1-2 3-4 5-6 5-8 8-17 8-27l0 0z" horiz-adv-x="1000" />

<glyph glyph-name="shipping-free" unicode="&#xe857;" d="M255 491c-8 0-13 0-15-1v-42h13c18 0 28 8 28 22 0 14-10 21-26 21z m729-165l-135 229c-5 9-14 14-25 14h-193v109c0 16-13 29-29 29h-560c-16 0-29-13-29-29v-579c0-16 13-29 29-29h112c16 0 29 13 29 29 1 66 56 121 123 121 66 0 121-54 122-121 0-16 13-29 29-29h147c16 0 29 13 29 29v413h177l122-208v-176h-13c-16 0-29-13-29-29s13-29 29-29h41c16 0 29 13 29 29v212c-1 6-3 11-5 15l0 0z m-805 161h-59v-35h55v-28h-55v-61h-35v153h94l0-29 0 0z m107-124c-3 4-6 17-11 35-4 19-10 25-25 25h-10v-61h-35v152c11 2 28 3 46 3 23 0 39-4 50-12 9-8 14-18 14-32 0-20-14-33-27-38v-1c10-4 16-14 20-28 5-18 10-38 13-43 0 0-35 0-35 0z m152 0h-98v153h95v-29h-60v-32h57v-28h-57v-36h63v-28z m121 0h-97v153h94v-29h-60v-32h57v-28h-57v-36h63v-28z m214-39c16 0 29 13 29 29v63c0 16-13 29-29 29h-64c-16 0-29-13-29-29v-64c0-16 13-29 29-29l64 1 0 0z m-468-341c-60 0-109 49-109 109s49 109 109 109 109-49 109-109-49-109-109-109z m0 159c-27 0-49-22-49-49 0-27 22-49 49-49s49 22 49 49c0 27-22 49-49 49z m455-159c-60 0-109 49-109 109s49 109 109 109 109-49 109-109-49-109-109-109z m0 159c-27 0-49-22-49-49 0-27 22-49 49-49 27 0 49 22 49 49 0 27-22 49-49 49z" horiz-adv-x="1000" />

<glyph glyph-name="shipping" unicode="&#xe858;" d="M773 324c16 0 29 13 29 29v63c0 16-13 29-29 29h-64c-16 0-29-13-29-29v-64c0-16 13-29 29-29l64 1 0 0 0 0z m-468-341c-60 0-109 49-109 109s49 109 109 109 109-49 109-109-49-109-109-109z m0 159c-27 0-49-22-49-49 0-27 22-49 49-49s49 22 49 49c0 27-22 49-49 49z m455-159c-60 0-109 49-109 109s49 109 109 109 109-49 109-109-49-109-109-109z m0 159c-27 0-49-22-49-49 0-27 22-49 49-49 27 0 49 22 49 49 0 27-22 49-49 49z m224 184l-135 229c-5 9-14 14-25 14h-193v109c0 16-13 29-29 29h-560c-16 0-29-13-29-29v-579c0-16 13-29 29-29h112c16 0 29 13 29 29 1 66 56 121 123 121 66 0 121-54 122-121 0-16 13-29 29-29h147c16 0 29 13 29 29v413h177l122-208v-176h-13c-16 0-29-13-29-29s13-29 29-29h41c16 0 29 13 29 29v212c-1 6-3 11-5 15l0 0z" horiz-adv-x="1000" />

<glyph glyph-name="shop" unicode="&#xe859;" d="M941 521l-108 204c-3 10-13 16-21 16h-644c-10 0-21-7-24-16l-85-208c-2-5-2-8-2-12v-71c0-78 64-141 142-141h40c46 0 88 21 114 57 28-36 75-57 127-57h44c52 0 98 23 125 61 28-37 70-58 115-58h39c78 0 141 63 141 140v70c0 5 0 10-3 15z m-820 11l65 157h610l83-157c0 0-758 0-758 0z m682-185h-39c-49 0-89 40-89 89 0 15-11 26-26 26-16 0-26-11-26-26v-11c0-44-45-80-99-80h-44c-56 0-99 32-99 74 0 2 0 5-2 8v0c0 15-10 26-26 26-15 0-26-10-26-26 0-47-39-84-89-84h-39c-50 2-91 43-91 91v47h784v-45c0-49-40-89-89-89l0 0z m50-88c-15 0-26-10-26-26v-196c0-14-12-26-26-26h-604c-14 0-26 13-26 26v196c0 15-10 26-26 26-15 0-26-10-26-26v-196c0-42 36-78 78-78h604c42 0 78 35 78 78v196c0 16-10 26-26 26z" horiz-adv-x="1000" />

<glyph glyph-name="shoppingbag" unicode="&#xe85a;" d="M812 781h-624c-89 0-163-74-163-164v-534c0-91 74-164 164-164h623c90 0 163 74 164 164v534c-1 90-74 164-164 164l0 0z m-623-60h623c57 0 104-46 104-104v-534c0-57-46-105-104-105h-623c-58 0-104 47-104 105v534c0 58 46 104 104 104z m311-400c152 0 275 123 275 274 0 17-14 30-30 30-16 0-29-14-29-30 0-118-97-215-216-215-118 0-215 97-215 215 0 17-14 30-30 30s-29-14-29-30c0-151 123-274 274-274z" horiz-adv-x="1000" />

<glyph glyph-name="square-add-o" unicode="&#xe85b;" d="M813 757h-625c-52 0-94-42-94-94v-625c0-52 42-94 94-94h625c51 0 93 42 94 94v625c0 52-43 94-94 94z m-157-446h-117v-117c0-21-17-39-39-39s-39 18-39 39v117h-117c-21 0-39 18-39 39s18 39 39 39h117v117c0 22 18 39 39 39s39-17 39-39v-117h117c22 0 40-17 39-39 0-21-17-39-39-39z" horiz-adv-x="1000" />

<glyph glyph-name="square-add" unicode="&#xe85c;" d="M813-56h-625c-52 0-94 42-94 94v625c0 52 42 94 94 94h625c51 0 94-42 94-94v-625c-1-52-43-94-94-94z m-625 750c-17 0-31-14-31-31v-625c0-17 14-31 31-31h625c17 0 31 14 31 31v625c0 17-14 31-31 31 0 0-625 0-625 0z m468-305h-117v117c0 22-17 39-39 39-21 0-39-17-39-39v-117h-117c-21 0-39-17-39-39s18-39 39-39h117v-117c0-21 18-39 39-39s39 18 39 39v117h117c22 0 39 18 39 39 1 22-17 39-39 39l0 0z" horiz-adv-x="1000" />

<glyph glyph-name="square-check-o" unicode="&#xe85d;" d="M813 757h-625c-52 0-94-42-94-94v-625c0-52 42-94 94-94h625c51 0 93 42 94 94v625c0 52-43 94-94 94z m-133-338l-193-193c-8-8-17-12-28-12s-20 4-28 12l-110 110c-8 8-12 17-12 28s4 20 12 28 17 11 27 11 20-4 28-11l82-83 166 165c8 8 17 12 28 12 11 0 20-4 28-12 7-7 11-17 11-27 0-11-4-20-11-28z" horiz-adv-x="1000" />

<glyph glyph-name="square-check" unicode="&#xe85e;" d="M813-56h-625c-52 0-94 42-94 94v625c0 52 42 94 94 94h625c51 0 94-42 94-94v-625c-1-52-43-94-94-94z m-625 750c-17 0-31-14-31-31v-625c0-17 14-31 31-31h625c17 0 31 14 31 31v625c0 17-14 31-31 31 0 0-625 0-625 0z m464-208c11 0 20-4 28-12 7-7 11-17 11-27 0-11-4-20-11-28l-193-193c-8-8-17-12-28-12-11 0-20 4-28 12l-110 110c-8 8-12 17-12 28 0 11 4 20 12 28 7 7 17 11 27 11 11 0 20-4 28-11l82-83 166 165c8 8 17 12 28 12z" horiz-adv-x="1000" />

<glyph glyph-name="square-cross-o" unicode="&#xe85f;" d="M813 757h-625c-52 0-94-42-94-94v-625c0-52 42-94 94-94h625c51 0 93 42 94 94v625c0 52-43 94-94 94z m-175-489c8-8 12-17 12-28s-4-20-12-28c-7-7-17-11-28-11s-20 4-27 11l-83 83-83-83c-7-8-16-12-27-12s-21 4-28 11-11 17-11 28c0 11 4 20 11 28l83 83-83 83c-8 7-12 17-12 28s4 20 12 28c7 7 17 11 27 11 11 0 20-4 28-11l83-84 83 83c8 8 17 12 28 12s20-4 28-12c7-7 11-17 11-28s-4-20-11-28l-84-82 83-82z" horiz-adv-x="1000" />

<glyph glyph-name="square-cross" unicode="&#xe860;" d="M813-56h-625c-52 0-94 42-94 94v625c0 52 42 94 94 94h625c51 0 94-42 94-94v-625c-1-52-43-94-94-94z m-625 750c-17 0-31-14-31-31v-625c0-17 14-31 31-31h625c17 0 31 14 31 31v625c0 17-14 31-31 31 0 0-625 0-625 0z m423-194c11 0 20-4 28-12 7-7 11-17 11-28 0-11-4-20-11-28l-84-82 83-82c8-8 12-17 12-28 0-11-4-20-12-28s-17-11-28-11c-11 0-20 4-27 11l-83 83-83-83c-7-8-16-12-27-12-11 0-21 4-28 11-8 8-11 17-11 28 0 11 4 20 11 28l83 83-83 83c-8 7-12 17-12 28 0 11 4 20 12 28 7 7 17 11 27 11 11 0 20-4 28-11l83-84 83 83c8 8 17 12 28 12z" horiz-adv-x="1000" />

<glyph glyph-name="square-minus-o" unicode="&#xe861;" d="M813 757h-625c-52 0-94-42-94-94v-625c0-52 42-94 94-94h625c51 0 93 42 94 94v625c0 52-43 94-94 94z m-129-434c-7-8-17-12-27-12h-313c-11 0-20 4-27 12s-12 17-12 27 4 20 12 28c7 7 16 11 27 11h313c11 0 20-4 27-11s12-17 12-28c0-11-4-20-12-27z" horiz-adv-x="1000" />

<glyph glyph-name="square-minus" unicode="&#xe862;" d="M813-56h-625c-52 0-94 42-94 94v625c0 52 42 94 94 94h625c51 0 94-42 94-94v-625c-1-52-43-94-94-94z m-625 750c-17 0-31-14-31-31v-625c0-17 14-31 31-31h625c17 0 31 14 31 31v625c0 17-14 31-31 31 0 0-625 0-625 0z m156-305h313c11 0 20-4 27-11s12-17 12-28c0-11-4-20-12-27-7-8-17-12-27-12h-313c-11 0-20 4-27 12-8 7-12 17-12 27s4 20 12 28 16 11 27 11z" horiz-adv-x="1000" />

<glyph glyph-name="square" unicode="&#xe863;" d="M813-56h-625c-52 0-94 42-94 94v625c0 52 42 94 94 94h625c51 0 94-42 94-94v-625c-1-52-43-94-94-94z m-625 750c-17 0-31-14-31-31v-625c0-17 14-31 31-31h625c17 0 31 14 31 31v625c0 17-14 31-31 31h-625z" horiz-adv-x="1000" />

<glyph glyph-name="stall" unicode="&#xe864;" d="M863 229h-656c-15 0-26-12-26-26 0-15 11-26 26-26h630v-163h-55c-14 0-26-12-26-27v-27c0-14 12-26 26-26 15 0 26 12 26 26v1h55c14 0 26 12 26 26v215c0 15-12 27-26 27l0 0z m-27 536h-671c-44 0-80-35-80-79v-240c0-8 4-15 10-20 6-5 14-7 21-5 19 4 36 13 49 27 17-18 41-29 67-29s49 11 67 29c17-18 41-29 67-29s49 11 67 29c17-18 41-29 67-29 25 0 49 11 67 29 17-18 41-29 67-29 25 0 49 11 67 29 17-18 41-29 67-29 25 0 49 11 67 29 13-14 30-23 48-27 8-1 16 0 22 6 6 5 9 12 9 20v240c1 43-34 78-78 78l0 0z m0-147c-15 0-26-11-26-26v-81c0-22-19-41-41-41s-41 19-41 41v81c0 15-12 26-26 26s-26-11-26-26v-81c0-22-19-41-41-41-23 0-41 19-41 41v81c0 15-12 26-26 26-15 0-26-11-26-26v-81c0-22-19-41-41-41-23 0-41 19-41 41v81c0 15-12 26-26 26-15 0-26-11-26-26v-81c0-22-19-41-41-41-23 0-41 19-41 41v81c0 15-12 26-26 26s-26-11-26-26v-81c0-22-19-41-41-41s-41 19-41 41v81c0 15-12 26-26 26s-26-11-26-26v-81c0-4-1-8-2-12v187c0 15 12 28 27 28h671c16 0 28-13 28-28v-187c-1 4-2 8-2 12v81c0 14-12 26-26 26l0 0z m-128-602h-416c-15 0-28-12-28-29 0-15 13-28 28-28h417c15 0 28 12 28 28 0 17-13 29-29 29l0 0z m-154 361c-22 0-41-18-41-40 0-8 6-14 14-14s13 6 13 14 6 13 14 13 13-6 13-13 6-14 14-14 13 6 13 14c0 22-18 40-40 40l0 0z m-94-121c0-7 6-13 14-13s13 6 13 13 6 14 14 14 13-6 13-14 6-13 14-13c7 0 13 6 13 13 0 22-18 41-40 41-23 0-41-19-41-41z m-107 0c0-7 6-13 13-13s14 6 14 13 6 14 13 14c8 0 14-6 14-14s6-13 13-13c8 0 14 6 14 13 0 22-18 41-41 41-22 0-40-19-40-41z m94 121c-22 0-41-18-41-40 0-8 6-14 14-14 7 0 13 6 13 14s6 13 14 13c7 0 13-6 13-13s6-14 14-14c7 0 13 6 13 14 0 22-18 40-40 40l0 0z m120-121c0-7 6-13 14-13s13 6 13 13 6 14 14 14c7 0 13-6 13-14s6-13 14-13c7 0 13 6 13 13 0 22-18 41-40 41-23 0-41-19-41-41l0 0z m296 145c-16 0-29-13-29-29v-96c0-15 13-28 29-28 15 0 28 13 28 28v96c0 16-13 29-28 29z m-645-385h-52v356c0 16-13 29-28 29s-29-13-29-29v-385c0-15 13-28 29-28h52c1-15 13-27 29-27s28 12 28 28v27c0 17-13 29-29 29l0 0z" horiz-adv-x="1000" />

<glyph glyph-name="star-o" unicode="&#xe865;" d="M955 364c28 26 38 67 26 104-12 36-44 63-82 69l-194 28c-11 1-22 9-27 20l-86 175c-17 35-52 57-91 57-39 0-74-22-91-57l-87-175c-5-11-15-18-27-20l-193-28c-38-6-70-33-82-69-12-37-2-78 25-104l140-137c9-8 13-20 11-32l-33-192c-6-30 2-60 22-83 31-37 82-47 125-25l173 91c10 6 23 6 33 0l173-91c15-8 31-11 47-11 30 0 59 13 78 36 19 23 27 52 22 83l-33 193c-2 11 2 23 10 32l141 136z" horiz-adv-x="1001" />

<glyph glyph-name="star" unicode="&#xe866;" d="M955 364c28 26 38 67 26 104-12 36-44 63-82 69l-194 28c-11 1-22 9-27 20l-86 175c-17 35-52 57-91 57-39 0-74-22-91-57l-87-175c-5-11-15-18-27-20l-193-28c-38-6-70-33-82-69-12-37-2-78 25-104l140-137c9-8 13-20 11-32l-33-192c-6-30 2-60 22-83 31-37 82-47 125-25l173 91c10 6 23 6 33 0l173-91c15-8 31-11 47-11 30 0 59 13 78 36 19 23 27 52 22 83l-33 193c-2 11 2 23 10 32l141 136z m-215-180l33-193c2-11-1-21-7-29-11-13-30-17-45-9l-173 91c-14 8-30 12-47 12-16 0-32-4-47-12l-174-91c-15-8-33-4-45 9-7 8-9 19-7 29l33 194c5 33-5 66-29 89l-140 137c-10 9-14 24-9 37 4 13 15 22 29 24l193 28c33 5 62 26 77 56l86 175c6 13 19 20 33 20 14 0 26-7 32-20l87-175c15-30 43-51 76-56l193-28c14-2 25-11 29-24 5-13 1-28-9-37l-140-137c-23-23-34-57-29-90l0 0z" horiz-adv-x="1001" />

<glyph glyph-name="tag-o" unicode="&#xe867;" d="M322 600c0 20-7 37-21 51-14 14-31 21-51 21s-36-7-50-21c-14-14-21-31-21-51 0-19 7-36 21-50s31-21 50-21c20 0 37 7 51 21 14 14 21 31 21 50z m595-321c0-20-7-37-20-50l-274-275c-15-14-32-21-51-21-20 0-37 7-50 21l-400 400c-14 14-26 32-36 56-10 24-15 46-15 66v231c0 20 7 36 21 50s31 21 50 21h233c20 0 42-5 66-15s43-22 57-36l399-398c13-14 20-31 20-50z" horiz-adv-x="1000" />

<glyph glyph-name="tag" unicode="&#xe868;" d="M214 547c0 55 45 100 100 100s100-45 100-100-45-100-100-100-100 45-100 100z m133 0c0 19-15 34-33 34-19 0-34-15-34-34 0-18 15-33 34-33 18 0 33 15 33 33z m-279-97v138c0 166 61 194 200 194h146c78 0 101-15 158-73l333-341c37-38 37-111 0-148l-266-275c-19-19-46-30-74-30-28 0-55 11-74 31l-307 302c-68 68-116 118-116 202z m799-156c0 11-3 21-10 27l-333 341c-50 52-57 54-109 54h-147c-115 0-134-9-134-128v-138c0-55 30-87 97-155l27-28 279-274c7-7 17-11 27-11 11 0 20 3 26 10l267 274c7 7 10 17 10 28z" horiz-adv-x="1000" />

<glyph glyph-name="text" unicode="&#xe869;" d="M924 743h-836c-16 0-30-13-30-30v-726c0-17 14-30 30-30h836c17 0 30 13 30 30v726c0 17-13 30-30 30z m-30-553v-173h-776v666h776v-493z m-230 219c-7 28-20 51-26 59-11 13-16 18-51 18h-39v-233c0-51 6-54 60-59v-22h-200v22c51 4 56 8 56 59v233h-36c-34 0-44-6-55-20-9-12-17-33-25-57h-23c4 44 9 91 10 120h18c9-14 16-15 34-15h241c16 0 25 3 35 15h18c0-26 3-78 6-118l-23-2z" horiz-adv-x="1000" />

<glyph glyph-name="top" unicode="&#xe86a;" d="M499 628l-405-392h230l-2-322h354v323l236 3-413 388z m-436 160h873v-129h-873v129l0 0z" horiz-adv-x="1000" />

<glyph glyph-name="upload" unicode="&#xe86b;" d="M266 520c7 0 14 3 19 8l189 189v-517c0-15 12-27 27-27 7 0 14 3 19 8s8 12 8 19v517l189-189c10-10 27-10 37 0 5 5 8 12 8 19 0 7-2 14-7 20l-212 211c-23 24-62 24-86 0l-210-211c-5-5-8-12-8-19 0-7 3-14 8-19 5-6 12-9 19-9z m549 200h-3c-15-1-27-13-26-28s14-27 28-26c59 0 108-48 108-107v-493c0-59-48-108-108-108h-626c-59 0-107 49-108 108v493c0 59 48 107 107 107h3c7 1 14 4 19 9 5 6 7 13 7 20-1 7-4 14-9 18-6 5-13 8-20 7-88 0-161-72-161-161v-493c0-89 73-162 162-162h627c89 0 161 73 161 162v493c0 89-72 161-161 161z" horiz-adv-x="1002" />

<glyph glyph-name="video" unicode="&#xe86c;" d="M924 743h-836c-16 0-30-13-30-30v-726c0-17 14-30 30-30h836c17 0 30 13 30 30v726c0 17-13 30-30 30z m-30-553v-173h-776v666h776v-493z m-501-6c5-3 11-4 14-4 5 0 10 2 14 5l239 140c8 5 13 14 13 23 0 10-5 19-13 24l-239 144-1 1c-5 2-9 3-13 3-15 0-28-12-28-27v-285c0-10 6-20 14-24z" horiz-adv-x="1012" />

<glyph glyph-name="view-e" unicode="&#xe86d;" d="M140 181l52 34c-74 60-106 117-106 135 0 31 41 94 118 150 51 38 157 101 295 101 82 0 154-23 208-49l58 37c-65 36-157 72-267 72-154 0-273-70-331-113-85-63-140-141-140-198 0-44 44-110 113-169z m715 347l-53-34c71-55 110-115 110-144 0-24-37-86-118-147-52-39-159-104-295-104-85 0-159 27-215 56l-57-37c66-39 160-79 272-79 154 0 273 73 331 116 85 64 142 142 142 195 0 51-45 119-117 178l0 0z m-786-483c-10 0-20 5-25 13-9 14-5 33 8 42l863 563c14 9 33 5 42-8 9-14 5-33-9-42l-863-563c-5-4-10-5-16-5z m533 438c-28 23-64 36-103 36-90 0-163-73-163-163 0-15 2-29 6-43l260 170z m-205-254c28-22 64-36 102-36 90 0 163 73 163 163 0 15-2 29-5 43l-260-170 0 0z" horiz-adv-x="1000" />

<glyph glyph-name="view" unicode="&#xe86e;" d="M336 356c0-90 73-163 163-163s163 73 163 163c0 90-73 163-163 163s-163-73-163-163c0 0 0 0 0 0z m519 172l-53-34c71-55 110-115 110-144 0-24-37-86-118-147-52-39-159-104-295-104-134 0-242 67-295 107-83 63-118 125-118 144 0 31 41 94 118 150 51 38 157 101 295 101 82 0 154-23 208-49l58 37c-65 36-157 72-267 72-154 0-273-70-331-113-85-63-140-141-140-198 0-50 57-128 141-192 59-44 179-119 331-119 154 0 273 73 331 116 85 64 142 142 142 195 0 51-45 119-117 178l0 0z" horiz-adv-x="1000" />

<glyph glyph-name="vip-card" unicode="&#xe86f;" d="M889 336c15 0 28 13 28 29v226c0 48-39 86-86 86h-678c-48 0-86-39-86-86v-480c0-48 39-86 86-86h678c48 0 86 39 86 86v66c0 16-13 28-28 28s-29-12-29-28v-62c0-19-15-34-34-34h-668c-19 0-34 16-34 34v315h737v-65c0-16 12-29 28-29z m-766 231v19c0 19 16 34 34 34h669c19 0 34-15 34-34v-19h-737z m738-56v-25h-738v25h738z m-712-289h91v-91h-91v91z m555 54v-147h23v55h37c36 0 54 16 55 47-2 28-20 43-52 45h-63z m91-45c-1-19-12-28-34-29h-34v56h34c22-1 33-10 34-27z m-151 45h22v-147h-22v147z m-94-128c-1 2-16 45-47 128h-24l58-147h25l59 147h-25c-30-83-45-125-46-128l0 0 0 0z" horiz-adv-x="1000" />

<glyph glyph-name="vip-o" unicode="&#xe870;" d="M940 529c-30 0-55-25-55-55 0-7 2-14 5-22l3-7-218-91-150 260 6 4c15 10 24 28 24 45 0 31-24 55-55 55-31 0-55-24-55-55 0-18 9-35 23-45l6-4-168-260-199 90 4 6 0 1c3 7 5 15 5 22 0 30-25 55-55 55s-55-25-55-55c0-30 23-54 53-55h6l99-425c2-10 10-18 19-21v-2h626c13 0 23 9 27 22l98 426h8c30 0 55 24 55 55s-26 56-57 56l0 0z m-120-423l-15-62c-3-11-13-19-24-19-2 0-4 0-6 1-14 3-22 17-19 30l15 62c4 13 17 21 30 18 14-3 23-16 19-30l0 0z m54 221l-37-156c-2-11-13-19-24-19-2 0-4 0-6 0-13 3-22 17-18 30l36 156c3 14 17 22 30 19 14-3 22-16 19-30l0 0z" horiz-adv-x="1000" />

<glyph glyph-name="vip" unicode="&#xe871;" d="M940 529c-30 0-55-25-55-55 0-7 2-14 5-22l3-7-218-91-150 260 6 4c15 10 24 28 24 45 0 31-24 55-55 55-31 0-55-24-55-55 0-18 9-35 23-45l6-4-168-260-199 90 4 6 0 1c3 7 5 15 5 22 0 30-25 55-55 55s-55-25-55-55c0-30 23-54 53-55h6l99-425c2-10 10-18 19-21v-2h626c13 0 23 9 27 22l98 426h8c30 0 55 24 55 55s-26 56-57 56l0 0z m-601-223l159 245 142-245 1-1c5-8 14-12 23-12 5 0 8 1 10 2l194 80-81-348h-576l-80 346 174-78 1 0c2-1 6-2 10-2 9 0 17 5 23 13z" horiz-adv-x="1000" />

<glyph glyph-name="lock" unicode="&#xe872;" d="M824 425h-39v55 5c0 157-128 285-285 285-157 0-285-128-285-285v-5-55h-39c-44 0-80-36-80-80v-5-314-5c0-44 36-80 80-80h648c44 0 80 36 80 80v5 314 5c0 44-36 80-80 80z m-324 270c119 0 215-96 215-215v-55h-430v55c0 119 97 215 215 215z m6-627h-11c-28 0-50 22-50 50v89c0 27 22 50 50 50h11c27 0 50-23 50-50v-89c0-28-23-50-50-50z" horiz-adv-x="1000" />
</font>
</defs>
</svg>
